<?xml version="1.0" encoding="UTF-8"?><svg xmlns="http://www.w3.org/2000/svg" xmlns:xlink="http://www.w3.org/1999/xlink" fill-opacity="1" color-rendering="auto" color-interpolation="auto" text-rendering="auto" stroke="black" stroke-linecap="square" width="519" stroke-miterlimit="10" shape-rendering="auto" stroke-opacity="1" fill="black" stroke-dasharray="none" font-weight="normal" stroke-width="1" height="581" font-family="'Dialog'" font-style="normal" stroke-linejoin="miter" font-size="12px" stroke-dashoffset="0" image-rendering="auto">
  <!--Generated by ySVG 2.6-->
  <defs id="genericDefs"/>
  <g>
    <defs id="defs1">
      <linearGradient x1="-237.2646" gradientUnits="userSpaceOnUse" x2="-228.4247" y1="185.8116" y2="202.8116" id="linearGradient1" spreadMethod="reflect">
        <stop stop-opacity="1" stop-color="rgb(51,51,51)" offset="0%"/>
        <stop stop-opacity="1" stop-color="black" offset="100%"/>
      </linearGradient>
      <linearGradient x1="-480.9474" gradientUnits="userSpaceOnUse" x2="-174.7963" y1="270.8323" y2="313.5607" id="linearGradient2" spreadMethod="reflect">
        <stop stop-opacity="1" stop-color="rgb(232,238,247)" offset="0%"/>
        <stop stop-opacity="1" stop-color="rgb(183,201,227)" offset="100%"/>
      </linearGradient>
      <linearGradient x1="-480.9474" gradientUnits="userSpaceOnUse" x2="-174.7963" y1="504.68" y2="547.4084" id="linearGradient3" spreadMethod="reflect">
        <stop stop-opacity="1" stop-color="rgb(232,238,247)" offset="0%"/>
        <stop stop-opacity="1" stop-color="rgb(183,201,227)" offset="100%"/>
      </linearGradient>
      <linearGradient x1="-480.9474" gradientUnits="userSpaceOnUse" x2="-174.7963" y1="621.6039" y2="664.3323" id="linearGradient4" spreadMethod="reflect">
        <stop stop-opacity="1" stop-color="rgb(232,238,247)" offset="0%"/>
        <stop stop-opacity="1" stop-color="rgb(183,201,227)" offset="100%"/>
      </linearGradient>
      <linearGradient x1="-480.9474" gradientUnits="userSpaceOnUse" x2="-174.7963" y1="387.7562" y2="430.4846" id="linearGradient5" spreadMethod="reflect">
        <stop stop-opacity="1" stop-color="rgb(232,238,247)" offset="0%"/>
        <stop stop-opacity="1" stop-color="rgb(183,201,227)" offset="100%"/>
      </linearGradient>
      <clipPath clipPathUnits="userSpaceOnUse" id="clipPath1">
        <path d="M0 0 L519 0 L519 581 L0 581 L0 0 Z"/>
      </clipPath>
      <clipPath clipPathUnits="userSpaceOnUse" id="clipPath2">
        <path d="M-577 136 L-58 136 L-58 717 L-577 717 L-577 136 Z"/>
      </clipPath>
      <clipPath clipPathUnits="userSpaceOnUse" id="clipPath3">
        <path d="M-577 270.8323 L-577 717 L-58 717 L-58 270.8323 Z"/>
      </clipPath>
      <clipPath clipPathUnits="userSpaceOnUse" id="clipPath4">
        <path d="M-577 136 L-577 270.8323 L-58 270.8323 L-58 136 Z"/>
      </clipPath>
      <clipPath clipPathUnits="userSpaceOnUse" id="clipPath5">
        <path d="M-577 504.68 L-577 717 L-58 717 L-58 504.68 Z"/>
      </clipPath>
      <clipPath clipPathUnits="userSpaceOnUse" id="clipPath6">
        <path d="M-577 136 L-577 504.68 L-58 504.68 L-58 136 Z"/>
      </clipPath>
      <clipPath clipPathUnits="userSpaceOnUse" id="clipPath7">
        <path d="M-577 621.6039 L-577 717 L-58 717 L-58 621.6039 Z"/>
      </clipPath>
      <clipPath clipPathUnits="userSpaceOnUse" id="clipPath8">
        <path d="M-577 136 L-577 621.6039 L-58 621.6039 L-58 136 Z"/>
      </clipPath>
      <clipPath clipPathUnits="userSpaceOnUse" id="clipPath9">
        <path d="M-577 387.7562 L-577 717 L-58 717 L-58 387.7562 Z"/>
      </clipPath>
      <clipPath clipPathUnits="userSpaceOnUse" id="clipPath10">
        <path d="M-577 136 L-577 387.7562 L-58 387.7562 L-58 136 Z"/>
      </clipPath>
    </defs>
    <g fill="white" text-rendering="geometricPrecision" shape-rendering="geometricPrecision" transform="translate(577,-136)" stroke="white">
      <rect x="-577" width="519" height="581" y="136" clip-path="url(#clipPath2)" stroke="none"/>
    </g>
    <g fill="rgb(245,245,245)" text-rendering="geometricPrecision" shape-rendering="geometricPrecision" transform="matrix(1,0,0,1,577,-136)" stroke="rgb(245,245,245)">
      <rect x="-557.1244" y="151.8116" clip-path="url(#clipPath2)" width="483.9305" rx="4" ry="4" height="545.9822" stroke="none"/>
      <rect x="-557.1244" y="151.8116" clip-path="url(#clipPath2)" fill="rgb(235,235,235)" width="483.9305" height="19" stroke="none"/>
    </g>
    <g font-size="15px" stroke-linecap="butt" transform="matrix(1,0,0,1,577,-136)" text-rendering="geometricPrecision" font-family="'Consolas'" shape-rendering="geometricPrecision" stroke-miterlimit="1.45">
      <text x="-368.7651" xml:space="preserve" y="164.9517" clip-path="url(#clipPath2)" stroke="none">fall_to_Earth</text>
      <text x="-551.1245" xml:space="preserve" font-size="12px" y="174.7237" clip-path="url(#clipPath2)" stroke="none"> </text>
      <text x="-551.1245" xml:space="preserve" font-size="12px" y="186.7237" clip-path="url(#clipPath2)" stroke="none"> </text>
      <text x="-551.1245" xml:space="preserve" font-size="12px" y="198.7237" clip-path="url(#clipPath2)" stroke="none">entry/</text>
      <rect x="-557.1244" y="151.8116" clip-path="url(#clipPath2)" fill="none" width="483.9305" rx="4" ry="4" height="545.9822"/>
    </g>
    <g fill="url(#linearGradient1)" text-rendering="geometricPrecision" shape-rendering="geometricPrecision" transform="matrix(1,0,0,1,577,-136)" stroke="url(#linearGradient1)">
      <path d="M-228.4247 194.3116 C-228.4247 196.7527 -230.4036 198.7315 -232.8447 198.7315 C-235.2857 198.7315 -237.2646 196.7527 -237.2646 194.3116 C-237.2646 191.8705 -235.2857 189.8917 -232.8447 189.8917 C-230.4036 189.8917 -228.4247 191.8705 -228.4247 194.3116 Z" stroke="none" clip-path="url(#clipPath2)"/>
    </g>
    <g text-rendering="geometricPrecision" stroke-miterlimit="1.45" shape-rendering="geometricPrecision" transform="matrix(1,0,0,1,577,-136)" stroke-linecap="butt">
      <path fill="none" d="M-228.4247 194.3116 C-228.4247 196.7527 -230.4036 198.7315 -232.8447 198.7315 C-235.2857 198.7315 -237.2646 196.7527 -237.2646 194.3116 C-237.2646 191.8705 -235.2857 189.8917 -232.8447 189.8917 C-230.4036 189.8917 -228.4247 191.8705 -228.4247 194.3116 Z" clip-path="url(#clipPath2)"/>
    </g>
    <g fill="url(#linearGradient2)" text-rendering="geometricPrecision" shape-rendering="geometricPrecision" transform="matrix(1,0,0,1,577,-136)" stroke="url(#linearGradient2)">
      <rect x="-480.9474" y="244.1311" clip-path="url(#clipPath3)" width="306.151" rx="4" ry="4" height="69.4295" stroke="none"/>
      <rect x="-480.9474" y="244.1311" clip-path="url(#clipPath4)" fill="rgb(183,201,227)" width="306.151" rx="4" ry="4" height="69.4295" stroke="none"/>
    </g>
    <g text-rendering="geometricPrecision" stroke-miterlimit="1.45" shape-rendering="geometricPrecision" transform="matrix(1,0,0,1,577,-136)" stroke-linecap="butt">
      <rect x="-480.9474" y="244.1311" clip-path="url(#clipPath2)" fill="none" width="306.151" rx="4" ry="4" height="69.4295"/>
      <line y2="270.8323" fill="none" x1="-480.9474" clip-path="url(#clipPath2)" x2="-174.7963" y1="270.8323"/>
      <text x="-350.5476" y="262.1956" clip-path="url(#clipPath2)" font-family="sans-serif" stroke="none" font-weight="bold" xml:space="preserve">to_back</text>
      <text x="-474.9474" xml:space="preserve" y="259.0432" clip-path="url(#clipPath2)" font-family="'Consolas'" stroke="none"> </text>
      <text x="-474.9474" xml:space="preserve" y="271.0432" clip-path="url(#clipPath2)" font-family="'Consolas'" stroke="none"> </text>
      <text x="-474.9474" xml:space="preserve" y="283.0432" clip-path="url(#clipPath2)" font-family="'Consolas'" stroke="none">entry/</text>
      <text x="-474.9474" xml:space="preserve" y="295.0432" clip-path="url(#clipPath2)" font-family="'Consolas'" stroke="none">DISPATCH(orientation, 'BACK')</text>
    </g>
    <g fill="url(#linearGradient3)" text-rendering="geometricPrecision" shape-rendering="geometricPrecision" transform="matrix(1,0,0,1,577,-136)" stroke="url(#linearGradient3)">
      <rect x="-480.9474" y="477.9789" clip-path="url(#clipPath5)" width="306.151" rx="4" ry="4" height="69.4295" stroke="none"/>
      <rect x="-480.9474" y="477.9789" clip-path="url(#clipPath6)" fill="rgb(183,201,227)" width="306.151" rx="4" ry="4" height="69.4295" stroke="none"/>
    </g>
    <g text-rendering="geometricPrecision" stroke-miterlimit="1.45" shape-rendering="geometricPrecision" transform="matrix(1,0,0,1,577,-136)" stroke-linecap="butt">
      <rect x="-480.9474" y="477.9789" clip-path="url(#clipPath2)" fill="none" width="306.151" rx="4" ry="4" height="69.4295"/>
      <line y2="504.68" fill="none" x1="-480.9474" clip-path="url(#clipPath2)" x2="-174.7963" y1="504.68"/>
      <text x="-384.5555" y="496.0433" clip-path="url(#clipPath2)" font-family="sans-serif" stroke="none" font-weight="bold" xml:space="preserve">start_engine_to_fall</text>
      <text x="-474.9474" xml:space="preserve" y="492.891" clip-path="url(#clipPath2)" font-family="'Consolas'" stroke="none"> </text>
      <text x="-474.9474" xml:space="preserve" y="504.891" clip-path="url(#clipPath2)" font-family="'Consolas'" stroke="none"> </text>
      <text x="-474.9474" xml:space="preserve" y="516.891" clip-path="url(#clipPath2)" font-family="'Consolas'" stroke="none">entry/</text>
      <text x="-474.9474" xml:space="preserve" y="528.891" clip-path="url(#clipPath2)" font-family="'Consolas'" stroke="none">engine.start_engine()</text>
    </g>
    <g fill="url(#linearGradient4)" text-rendering="geometricPrecision" shape-rendering="geometricPrecision" transform="matrix(1,0,0,1,577,-136)" stroke="url(#linearGradient4)">
      <rect x="-480.9474" y="594.9027" clip-path="url(#clipPath7)" width="306.151" rx="4" ry="4" height="69.4295" stroke="none"/>
      <rect x="-480.9474" y="594.9027" clip-path="url(#clipPath8)" fill="rgb(183,201,227)" width="306.151" rx="4" ry="4" height="69.4295" stroke="none"/>
    </g>
    <g text-rendering="geometricPrecision" stroke-miterlimit="1.45" shape-rendering="geometricPrecision" transform="matrix(1,0,0,1,577,-136)" stroke-linecap="butt">
      <rect x="-480.9474" y="594.9027" clip-path="url(#clipPath2)" fill="none" width="306.151" rx="4" ry="4" height="69.4295"/>
      <line y2="621.6039" fill="none" x1="-480.9474" clip-path="url(#clipPath2)" x2="-174.7963" y1="621.6039"/>
      <text x="-371.5447" y="612.9672" clip-path="url(#clipPath2)" font-family="sans-serif" stroke="none" font-weight="bold" xml:space="preserve">drop_conteiner</text>
      <text x="-474.9474" xml:space="preserve" y="609.8148" clip-path="url(#clipPath2)" font-family="'Consolas'" stroke="none"> </text>
      <text x="-474.9474" xml:space="preserve" y="621.8148" clip-path="url(#clipPath2)" font-family="'Consolas'" stroke="none"> </text>
      <text x="-474.9474" xml:space="preserve" y="633.8148" clip-path="url(#clipPath2)" font-family="'Consolas'" stroke="none">entry/</text>
      <text x="-474.9474" xml:space="preserve" y="645.8148" clip-path="url(#clipPath2)" font-family="'Consolas'" stroke="none">container.set_parachute_height(5000)</text>
      <text x="-474.9474" xml:space="preserve" y="657.8148" clip-path="url(#clipPath2)" font-family="'Consolas'" stroke="none">container.drop()</text>
    </g>
    <g fill="url(#linearGradient5)" text-rendering="geometricPrecision" shape-rendering="geometricPrecision" transform="matrix(1,0,0,1,577,-136)" stroke="url(#linearGradient5)">
      <rect x="-480.9474" y="361.055" clip-path="url(#clipPath9)" width="306.151" rx="4" ry="4" height="69.4295" stroke="none"/>
      <rect x="-480.9474" y="361.055" clip-path="url(#clipPath10)" fill="rgb(183,201,227)" width="306.151" rx="4" ry="4" height="69.4295" stroke="none"/>
    </g>
    <g text-rendering="geometricPrecision" stroke-miterlimit="1.45" shape-rendering="geometricPrecision" transform="matrix(1,0,0,1,577,-136)" stroke-linecap="butt">
      <rect x="-480.9474" y="361.055" clip-path="url(#clipPath2)" fill="none" width="306.151" rx="4" ry="4" height="69.4295"/>
      <line y2="387.7562" fill="none" x1="-480.9474" clip-path="url(#clipPath2)" x2="-174.7963" y1="387.7562"/>
      <text x="-365.5535" y="379.1194" clip-path="url(#clipPath2)" font-family="sans-serif" stroke="none" font-weight="bold" xml:space="preserve">wait_to_back</text>
      <text x="-474.9474" xml:space="preserve" y="375.9671" clip-path="url(#clipPath2)" font-family="'Consolas'" stroke="none"> </text>
      <text x="-474.9474" xml:space="preserve" y="387.9671" clip-path="url(#clipPath2)" font-family="'Consolas'" stroke="none"> </text>
      <text x="-474.9474" xml:space="preserve" y="399.9671" clip-path="url(#clipPath2)" font-family="'Consolas'" stroke="none">entry/</text>
    </g>
    <g text-rendering="geometricPrecision" stroke-miterlimit="1.45" shape-rendering="geometricPrecision" transform="matrix(1,0,0,1,577,-136)" stroke-linecap="butt">
      <path fill="none" d="M-232.8447 198.697 L-232.8447 236.1057" clip-path="url(#clipPath2)"/>
      <path d="M-232.8447 244.1057 L-227.8447 232.1057 L-232.8447 235.1057 L-237.8447 232.1057 Z" clip-path="url(#clipPath2)" stroke="none"/>
      <path fill="none" d="M-232.2404 547.3889 L-232.2404 586.887" clip-path="url(#clipPath2)"/>
      <path d="M-232.2404 594.887 L-227.2404 582.887 L-232.2404 585.887 L-237.2404 582.887 Z" clip-path="url(#clipPath2)" stroke="none"/>
      <text x="-420.8765" xml:space="preserve" y="575.564" clip-path="url(#clipPath2)" font-family="sans-serif" stroke="none">[engine.get_fuel() &lt; Traction]</text>
      <path fill="none" d="M-232.8125 313.5797 L-232.8125 353.0894" clip-path="url(#clipPath2)"/>
      <path d="M-232.8125 361.0894 L-227.8125 349.0894 L-232.8125 352.0894 L-237.8125 349.0894 Z" clip-path="url(#clipPath2)" stroke="none"/>
      <text x="-304.9162" xml:space="preserve" y="337.2571" clip-path="url(#clipPath2)" font-family="sans-serif" stroke="none">ORIENTED</text>
      <path fill="none" d="M-232.5473 430.5147 L-232.5473 470.0009" clip-path="url(#clipPath2)"/>
      <path d="M-232.5473 478.0009 L-227.5473 466.0009 L-232.5473 469.0009 L-237.5473 466.0009 Z" clip-path="url(#clipPath2)" stroke="none"/>
      <text x="-333.1141" xml:space="preserve" y="454.9185" clip-path="url(#clipPath2)" font-family="sans-serif" stroke="none">[ready_to_fall()]</text>
    </g>
  </g>
</svg>
