<?xml version="1.0" encoding="UTF-8"?><svg xmlns="http://www.w3.org/2000/svg" xmlns:xlink="http://www.w3.org/1999/xlink" fill-opacity="1" color-rendering="auto" color-interpolation="auto" text-rendering="auto" stroke="black" stroke-linecap="square" width="989" stroke-miterlimit="10" shape-rendering="auto" stroke-opacity="1" fill="black" stroke-dasharray="none" font-weight="normal" stroke-width="1" height="621" font-family="'Dialog'" font-style="normal" stroke-linejoin="miter" font-size="12px" stroke-dashoffset="0" image-rendering="auto">
  <!--Generated by ySVG 2.6-->
  <defs id="genericDefs"/>
  <g>
    <defs id="defs1">
      <linearGradient x1="408.5317" gradientUnits="userSpaceOnUse" x2="416.9417" y1="76.032" y2="99.4315" id="linearGradient1" spreadMethod="reflect">
        <stop stop-opacity="1" stop-color="rgb(51,51,51)" offset="0%"/>
        <stop stop-opacity="1" stop-color="black" offset="100%"/>
      </linearGradient>
      <linearGradient x1="147.6772" gradientUnits="userSpaceOnUse" x2="467.8568" y1="221.3965" y2="320.2685" id="linearGradient2" spreadMethod="reflect">
        <stop stop-opacity="1" stop-color="rgb(232,238,247)" offset="0%"/>
        <stop stop-opacity="1" stop-color="rgb(183,201,227)" offset="100%"/>
      </linearGradient>
      <linearGradient x1="726.1483" gradientUnits="userSpaceOnUse" x2="1046.3279" y1="442.2335" y2="541.1055" id="linearGradient3" spreadMethod="reflect">
        <stop stop-opacity="1" stop-color="rgb(232,238,247)" offset="0%"/>
        <stop stop-opacity="1" stop-color="rgb(183,201,227)" offset="100%"/>
      </linearGradient>
      <linearGradient x1="726.1483" gradientUnits="userSpaceOnUse" x2="1046.3279" y1="221.3965" y2="320.2685" id="linearGradient4" spreadMethod="reflect">
        <stop stop-opacity="1" stop-color="rgb(232,238,247)" offset="0%"/>
        <stop stop-opacity="1" stop-color="rgb(183,201,227)" offset="100%"/>
      </linearGradient>
      <linearGradient x1="147.6772" gradientUnits="userSpaceOnUse" x2="467.8568" y1="442.2335" y2="541.1055" id="linearGradient5" spreadMethod="reflect">
        <stop stop-opacity="1" stop-color="rgb(232,238,247)" offset="0%"/>
        <stop stop-opacity="1" stop-color="rgb(183,201,227)" offset="100%"/>
      </linearGradient>
      <clipPath clipPathUnits="userSpaceOnUse" id="clipPath1">
        <path d="M0 0 L989 0 L989 621 L0 621 L0 0 Z"/>
      </clipPath>
      <clipPath clipPathUnits="userSpaceOnUse" id="clipPath2">
        <path d="M99 61 L1088 61 L1088 682 L99 682 L99 61 Z"/>
      </clipPath>
      <clipPath clipPathUnits="userSpaceOnUse" id="clipPath3">
        <path d="M99 221.3965 L99 682 L1088 682 L1088 221.3965 Z"/>
      </clipPath>
      <clipPath clipPathUnits="userSpaceOnUse" id="clipPath4">
        <path d="M99 61 L99 221.3965 L1088 221.3965 L1088 61 Z"/>
      </clipPath>
      <clipPath clipPathUnits="userSpaceOnUse" id="clipPath5">
        <path d="M99 442.2335 L99 682 L1088 682 L1088 442.2335 Z"/>
      </clipPath>
      <clipPath clipPathUnits="userSpaceOnUse" id="clipPath6">
        <path d="M99 61 L99 442.2335 L1088 442.2335 L1088 61 Z"/>
      </clipPath>
    </defs>
    <g fill="white" text-rendering="geometricPrecision" shape-rendering="geometricPrecision" transform="translate(-99,-61)" stroke="white">
      <rect x="99" width="989" height="621" y="61" clip-path="url(#clipPath2)" stroke="none"/>
    </g>
    <g fill="url(#linearGradient1)" text-rendering="geometricPrecision" shape-rendering="geometricPrecision" transform="matrix(1,0,0,1,-99,-61)" stroke="url(#linearGradient1)">
      <path d="M416.9417 87.7318 C416.9417 90.0541 415.0591 91.9368 412.7367 91.9368 C410.4143 91.9368 408.5317 90.0541 408.5317 87.7318 C408.5317 85.4094 410.4143 83.5268 412.7367 83.5268 C415.0591 83.5268 416.9417 85.4094 416.9417 87.7318 Z" stroke="none" clip-path="url(#clipPath2)"/>
    </g>
    <g text-rendering="geometricPrecision" stroke-miterlimit="1.45" shape-rendering="geometricPrecision" transform="matrix(1,0,0,1,-99,-61)" stroke-linecap="butt">
      <path fill="none" d="M416.9417 87.7318 C416.9417 90.0541 415.0591 91.9368 412.7367 91.9368 C410.4143 91.9368 408.5317 90.0541 408.5317 87.7318 C408.5317 85.4094 410.4143 83.5268 412.7367 83.5268 C415.0591 83.5268 416.9417 85.4094 416.9417 87.7318 Z" clip-path="url(#clipPath2)"/>
    </g>
    <g fill="rgb(255,204,0)" text-rendering="geometricPrecision" shape-rendering="geometricPrecision" transform="matrix(1,0,0,1,-99,-61)" stroke="rgb(255,204,0)">
      <path d="M114.7584 597.196 L233.6588 597.196 L233.6588 612.196 L248.6588 612.196 L248.6588 666.9534 L114.7584 666.9534 Z" stroke="none" clip-path="url(#clipPath2)"/>
    </g>
    <g fill="white" text-rendering="geometricPrecision" shape-rendering="geometricPrecision" transform="matrix(1,0,0,1,-99,-61)" stroke="white">
      <path d="M233.6588 597.196 L233.6588 612.196 L248.6588 612.196 Z" fill-rule="evenodd" clip-path="url(#clipPath2)" stroke="none"/>
    </g>
    <g text-rendering="geometricPrecision" stroke-miterlimit="1.45" shape-rendering="geometricPrecision" transform="matrix(1,0,0,1,-99,-61)" stroke-linecap="butt">
      <path fill="none" d="M114.7584 597.196 L233.6588 597.196 L233.6588 612.196 L248.6588 612.196 L248.6588 666.9534 L114.7584 666.9534 Z" clip-path="url(#clipPath2)"/>
      <path fill="none" d="M233.6588 597.196 L233.6588 612.196 L248.6588 612.196 Z" clip-path="url(#clipPath2)" fill-rule="evenodd"/>
      <text x="128.9274" xml:space="preserve" y="616.9868" clip-path="url(#clipPath2)" font-family="'Consolas'" stroke="none">Init scripts:</text>
      <text x="128.9274" xml:space="preserve" y="628.9868" clip-path="url(#clipPath2)" font-family="'Consolas'" stroke="none"> </text>
      <text x="128.9274" xml:space="preserve" y="640.9868" clip-path="url(#clipPath2)" font-family="'Consolas'" stroke="none">dzz_constants.py</text>
      <text x="128.9274" xml:space="preserve" y="652.9868" clip-path="url(#clipPath2)" font-family="'Consolas'" stroke="none">dzz_camera.py</text>
    </g>
    <g fill="rgb(245,245,245)" text-rendering="geometricPrecision" shape-rendering="geometricPrecision" transform="matrix(1,0,0,1,-99,-61)" stroke="rgb(245,245,245)">
      <rect x="114.7584" y="139.9695" clip-path="url(#clipPath2)" width="953.4719" rx="4" ry="4" height="427.2266" stroke="none"/>
      <rect x="114.7584" y="139.9695" clip-path="url(#clipPath2)" fill="rgb(235,235,235)" width="953.4719" height="19" stroke="none"/>
    </g>
    <g font-size="15px" stroke-linecap="butt" transform="matrix(1,0,0,1,-99,-61)" text-rendering="geometricPrecision" font-family="'Consolas'" shape-rendering="geometricPrecision" stroke-miterlimit="1.45">
      <text x="566.7532" xml:space="preserve" y="153.1096" clip-path="url(#clipPath2)" stroke="none">camera</text>
      <text x="120.7584" xml:space="preserve" font-size="12px" y="154.8816" clip-path="url(#clipPath2)" stroke="none"> </text>
      <text x="120.7584" xml:space="preserve" font-size="12px" y="166.8816" clip-path="url(#clipPath2)" stroke="none"> </text>
      <text x="120.7584" xml:space="preserve" font-size="12px" y="178.8816" clip-path="url(#clipPath2)" stroke="none">entry/</text>
      <rect x="114.7584" y="139.9695" clip-path="url(#clipPath2)" fill="none" width="953.4719" rx="4" ry="4" height="427.2266"/>
    </g>
    <g fill="url(#linearGradient2)" text-rendering="geometricPrecision" shape-rendering="geometricPrecision" transform="matrix(1,0,0,1,-99,-61)" stroke="url(#linearGradient2)">
      <rect x="147.6772" y="194.6953" clip-path="url(#clipPath3)" width="320.1795" rx="4" ry="4" height="125.5732" stroke="none"/>
      <rect x="147.6772" y="194.6953" clip-path="url(#clipPath4)" fill="rgb(183,201,227)" width="320.1795" rx="4" ry="4" height="125.5732" stroke="none"/>
    </g>
    <g text-rendering="geometricPrecision" stroke-miterlimit="1.45" shape-rendering="geometricPrecision" transform="matrix(1,0,0,1,-99,-61)" stroke-linecap="butt">
      <rect x="147.6772" y="194.6953" clip-path="url(#clipPath2)" fill="none" width="320.1795" rx="4" ry="4" height="125.5732"/>
      <line y2="221.3965" fill="none" x1="147.6772" clip-path="url(#clipPath2)" x2="467.8568" y1="221.3965"/>
      <text x="296.0981" y="212.7598" clip-path="url(#clipPath2)" font-family="sans-serif" stroke="none" font-weight="bold" xml:space="preserve">wait</text>
      <text x="153.6772" xml:space="preserve" y="209.6074" clip-path="url(#clipPath2)" font-family="'Consolas'" stroke="none"> </text>
      <text x="153.6772" xml:space="preserve" y="221.6074" clip-path="url(#clipPath2)" font-family="'Consolas'" stroke="none"> </text>
      <text x="153.6772" xml:space="preserve" y="233.6074" clip-path="url(#clipPath2)" font-family="'Consolas'" stroke="none">entry/</text>
    </g>
    <g fill="url(#linearGradient3)" text-rendering="geometricPrecision" shape-rendering="geometricPrecision" transform="matrix(1,0,0,1,-99,-61)" stroke="url(#linearGradient3)">
      <rect x="726.1483" y="415.5323" clip-path="url(#clipPath5)" width="320.1795" rx="4" ry="4" height="125.5732" stroke="none"/>
      <rect x="726.1483" y="415.5323" clip-path="url(#clipPath6)" fill="rgb(183,201,227)" width="320.1795" rx="4" ry="4" height="125.5732" stroke="none"/>
    </g>
    <g text-rendering="geometricPrecision" stroke-miterlimit="1.45" shape-rendering="geometricPrecision" transform="matrix(1,0,0,1,-99,-61)" stroke-linecap="butt">
      <rect x="726.1483" y="415.5323" clip-path="url(#clipPath2)" fill="none" width="320.1795" rx="4" ry="4" height="125.5732"/>
      <line y2="442.2335" fill="none" x1="726.1483" clip-path="url(#clipPath2)" x2="1046.3278" y1="442.2335"/>
      <text x="860.9109" y="433.5967" clip-path="url(#clipPath2)" font-family="sans-serif" stroke="none" font-weight="bold" xml:space="preserve">shooting</text>
      <text x="732.1483" xml:space="preserve" y="430.4444" clip-path="url(#clipPath2)" font-family="'Consolas'" stroke="none"> </text>
      <text x="732.1483" xml:space="preserve" y="442.4444" clip-path="url(#clipPath2)" font-family="'Consolas'" stroke="none"> </text>
      <text x="732.1483" xml:space="preserve" y="454.4444" clip-path="url(#clipPath2)" font-family="'Consolas'" stroke="none">entry/</text>
      <text x="732.1483" xml:space="preserve" y="466.4444" clip-path="url(#clipPath2)" font-family="'Consolas'" stroke="none">camera.start_shooting()</text>
    </g>
    <g fill="url(#linearGradient4)" text-rendering="geometricPrecision" shape-rendering="geometricPrecision" transform="matrix(1,0,0,1,-99,-61)" stroke="url(#linearGradient4)">
      <rect x="726.1483" y="194.6953" clip-path="url(#clipPath3)" width="320.1795" rx="4" ry="4" height="125.5732" stroke="none"/>
      <rect x="726.1483" y="194.6953" clip-path="url(#clipPath4)" fill="rgb(183,201,227)" width="320.1795" rx="4" ry="4" height="125.5732" stroke="none"/>
    </g>
    <g text-rendering="geometricPrecision" stroke-miterlimit="1.45" shape-rendering="geometricPrecision" transform="matrix(1,0,0,1,-99,-61)" stroke-linecap="butt">
      <rect x="726.1483" y="194.6953" clip-path="url(#clipPath2)" fill="none" width="320.1795" rx="4" ry="4" height="125.5732"/>
      <line y2="221.3965" fill="none" x1="726.1483" clip-path="url(#clipPath2)" x2="1046.3278" y1="221.3965"/>
      <text x="862.5662" y="212.7598" clip-path="url(#clipPath2)" font-family="sans-serif" stroke="none" font-weight="bold" xml:space="preserve">transmit</text>
      <text x="732.1483" xml:space="preserve" y="209.6074" clip-path="url(#clipPath2)" font-family="'Consolas'" stroke="none"> </text>
      <text x="732.1483" xml:space="preserve" y="221.6074" clip-path="url(#clipPath2)" font-family="'Consolas'" stroke="none"> </text>
      <text x="732.1483" xml:space="preserve" y="233.6074" clip-path="url(#clipPath2)" font-family="'Consolas'" stroke="none">entry/</text>
      <text x="732.1483" xml:space="preserve" y="245.6074" clip-path="url(#clipPath2)" font-family="'Consolas'" stroke="none">slot = camera.stop_shooting()</text>
      <text x="732.1483" xml:space="preserve" y="257.6074" clip-path="url(#clipPath2)" font-family="'Consolas'" stroke="none">camera.set_state(STATE_OFF)</text>
      <text x="732.1483" xml:space="preserve" y="269.6074" clip-path="url(#clipPath2)" font-family="'Consolas'" stroke="none">transmitter.set_state(STATE_ON)</text>
      <text x="732.1483" xml:space="preserve" y="281.6074" clip-path="url(#clipPath2)" font-family="'Consolas'" stroke="none">transmitter.send_photo(slot)</text>
    </g>
    <g fill="url(#linearGradient5)" text-rendering="geometricPrecision" shape-rendering="geometricPrecision" transform="matrix(1,0,0,1,-99,-61)" stroke="url(#linearGradient5)">
      <rect x="147.6772" y="415.5323" clip-path="url(#clipPath5)" width="320.1795" rx="4" ry="4" height="125.5732" stroke="none"/>
      <rect x="147.6772" y="415.5323" clip-path="url(#clipPath6)" fill="rgb(183,201,227)" width="320.1795" rx="4" ry="4" height="125.5732" stroke="none"/>
    </g>
    <g text-rendering="geometricPrecision" stroke-miterlimit="1.45" shape-rendering="geometricPrecision" transform="matrix(1,0,0,1,-99,-61)" stroke-linecap="butt">
      <rect x="147.6772" y="415.5323" clip-path="url(#clipPath2)" fill="none" width="320.1795" rx="4" ry="4" height="125.5732"/>
      <line y2="442.2335" fill="none" x1="147.6772" clip-path="url(#clipPath2)" x2="467.8568" y1="442.2335"/>
      <text x="261.0766" y="433.5967" clip-path="url(#clipPath2)" font-family="sans-serif" stroke="none" font-weight="bold" xml:space="preserve">take_a_dispatch</text>
      <text x="153.6772" xml:space="preserve" y="430.4444" clip-path="url(#clipPath2)" font-family="'Consolas'" stroke="none"> </text>
      <text x="153.6772" xml:space="preserve" y="442.4444" clip-path="url(#clipPath2)" font-family="'Consolas'" stroke="none"> </text>
      <text x="153.6772" xml:space="preserve" y="454.4444" clip-path="url(#clipPath2)" font-family="'Consolas'" stroke="none">entry/</text>
    </g>
    <g text-rendering="geometricPrecision" stroke-miterlimit="1.45" shape-rendering="geometricPrecision" transform="matrix(1,0,0,1,-99,-61)" stroke-linecap="butt">
      <path fill="none" d="M412.7367 91.955 L412.7367 186.7202" clip-path="url(#clipPath2)"/>
      <path d="M412.7367 194.7202 L417.7367 182.7202 L412.7367 185.7202 L407.7367 182.7202 Z" clip-path="url(#clipPath2)" stroke="none"/>
      <path fill="none" d="M987.8499 415.5374 L987.8499 328.2522" clip-path="url(#clipPath2)"/>
      <path d="M987.8499 320.2522 L982.8499 332.2522 L987.8499 329.2522 L992.8499 332.2522 Z" clip-path="url(#clipPath2)" stroke="none"/>
      <text x="823.019" xml:space="preserve" y="368.133" clip-path="url(#clipPath2)" font-family="sans-serif" stroke="none">TIMER_1S</text>
      <text x="754.3032" xml:space="preserve" y="382.8341" clip-path="url(#clipPath2)" font-family="sans-serif" stroke="none">[not is_camera_focused_on_target()]</text>
      <path fill="none" d="M412.9454 320.2482 L412.9454 407.5472" clip-path="url(#clipPath2)"/>
      <path d="M412.9454 415.5472 L417.9454 403.5472 L412.9454 406.5472 L407.9454 403.5472 Z" clip-path="url(#clipPath2)" stroke="none"/>
      <text x="319.3446" xml:space="preserve" y="374.3658" clip-path="url(#clipPath2)" font-family="sans-serif" stroke="none">TAKE_PHOTO</text>
      <path fill="none" d="M467.8846 478.3189 L718.1638 478.3189" clip-path="url(#clipPath2)"/>
      <path d="M726.1638 478.3189 L714.1638 473.3189 L717.1638 478.3189 L714.1638 483.3189 Z" clip-path="url(#clipPath2)" stroke="none"/>
      <text x="488.277" xml:space="preserve" y="456.7201" clip-path="url(#clipPath2)" font-family="sans-serif" stroke="none">[is_camera_focused_on_target()]</text>
    </g>
  </g>
</svg>
