<?xml version="1.0" encoding="UTF-8"?><svg xmlns="http://www.w3.org/2000/svg" xmlns:xlink="http://www.w3.org/1999/xlink" fill-opacity="1" color-rendering="auto" color-interpolation="auto" text-rendering="auto" stroke="black" stroke-linecap="square" width="1406" stroke-miterlimit="10" shape-rendering="auto" stroke-opacity="1" fill="black" stroke-dasharray="none" font-weight="normal" stroke-width="1" height="1236" font-family="'Dialog'" font-style="normal" stroke-linejoin="miter" font-size="12px" stroke-dashoffset="0" image-rendering="auto">
  <!--Generated by ySVG 2.6-->
  <defs id="genericDefs"/>
  <g>
    <defs id="defs1">
      <linearGradient x1="594.8419" gradientUnits="userSpaceOnUse" x2="943.2883" y1="651.7021" y2="780.1259" id="linearGradient1" spreadMethod="reflect">
        <stop stop-opacity="1" stop-color="rgb(232,238,247)" offset="0%"/>
        <stop stop-opacity="1" stop-color="rgb(183,201,227)" offset="100%"/>
      </linearGradient>
      <linearGradient x1="1498.2734" gradientUnits="userSpaceOnUse" x2="1873.1398" y1="1337.906" y2="1429.9412" id="linearGradient2" spreadMethod="reflect">
        <stop stop-opacity="1" stop-color="rgb(232,238,247)" offset="0%"/>
        <stop stop-opacity="1" stop-color="rgb(183,201,227)" offset="100%"/>
      </linearGradient>
      <linearGradient x1="1498.2734" gradientUnits="userSpaceOnUse" x2="1873.1398" y1="681.0013" y2="750.8267" id="linearGradient3" spreadMethod="reflect">
        <stop stop-opacity="1" stop-color="rgb(232,238,247)" offset="0%"/>
        <stop stop-opacity="1" stop-color="rgb(183,201,227)" offset="100%"/>
      </linearGradient>
      <linearGradient x1="1004.9606" gradientUnits="userSpaceOnUse" x2="1379.8269" y1="848.0037" y2="917.829" id="linearGradient4" spreadMethod="reflect">
        <stop stop-opacity="1" stop-color="rgb(232,238,247)" offset="0%"/>
        <stop stop-opacity="1" stop-color="rgb(183,201,227)" offset="100%"/>
      </linearGradient>
      <linearGradient x1="1004.9606" gradientUnits="userSpaceOnUse" x2="1379.8269" y1="1015.0061" y2="1084.8314" id="linearGradient5" spreadMethod="reflect">
        <stop stop-opacity="1" stop-color="rgb(232,238,247)" offset="0%"/>
        <stop stop-opacity="1" stop-color="rgb(183,201,227)" offset="100%"/>
      </linearGradient>
      <linearGradient x1="1004.9606" gradientUnits="userSpaceOnUse" x2="1379.8269" y1="1182.0085" y2="1251.8339" id="linearGradient6" spreadMethod="reflect">
        <stop stop-opacity="1" stop-color="rgb(232,238,247)" offset="0%"/>
        <stop stop-opacity="1" stop-color="rgb(183,201,227)" offset="100%"/>
      </linearGradient>
      <linearGradient x1="1004.9606" gradientUnits="userSpaceOnUse" x2="1379.8269" y1="1349.011" y2="1418.8363" id="linearGradient7" spreadMethod="reflect">
        <stop stop-opacity="1" stop-color="rgb(232,238,247)" offset="0%"/>
        <stop stop-opacity="1" stop-color="rgb(183,201,227)" offset="100%"/>
      </linearGradient>
      <linearGradient x1="1498.2734" gradientUnits="userSpaceOnUse" x2="1873.1398" y1="1182.0085" y2="1251.8339" id="linearGradient8" spreadMethod="reflect">
        <stop stop-opacity="1" stop-color="rgb(232,238,247)" offset="0%"/>
        <stop stop-opacity="1" stop-color="rgb(183,201,227)" offset="100%"/>
      </linearGradient>
      <linearGradient x1="1498.2734" gradientUnits="userSpaceOnUse" x2="1873.1398" y1="1015.0061" y2="1084.8314" id="linearGradient9" spreadMethod="reflect">
        <stop stop-opacity="1" stop-color="rgb(232,238,247)" offset="0%"/>
        <stop stop-opacity="1" stop-color="rgb(183,201,227)" offset="100%"/>
      </linearGradient>
      <linearGradient x1="1498.2734" gradientUnits="userSpaceOnUse" x2="1873.1398" y1="848.0037" y2="917.829" id="linearGradient10" spreadMethod="reflect">
        <stop stop-opacity="1" stop-color="rgb(232,238,247)" offset="0%"/>
        <stop stop-opacity="1" stop-color="rgb(183,201,227)" offset="100%"/>
      </linearGradient>
      <linearGradient x1="764.6451" gradientUnits="userSpaceOnUse" x2="773.485" y1="376.9453" y2="393.9453" id="linearGradient11" spreadMethod="reflect">
        <stop stop-opacity="1" stop-color="rgb(51,51,51)" offset="0%"/>
        <stop stop-opacity="1" stop-color="black" offset="100%"/>
      </linearGradient>
      <clipPath clipPathUnits="userSpaceOnUse" id="clipPath1">
        <path d="M0 0 L1406 0 L1406 1236 L0 1236 L0 0 Z"/>
      </clipPath>
      <clipPath clipPathUnits="userSpaceOnUse" id="clipPath2">
        <path d="M548 361 L1954 361 L1954 1597 L548 1597 L548 361 Z"/>
      </clipPath>
      <clipPath clipPathUnits="userSpaceOnUse" id="clipPath3">
        <path d="M548 651.702 L548 1597 L1954 1597 L1954 651.702 Z"/>
      </clipPath>
      <clipPath clipPathUnits="userSpaceOnUse" id="clipPath4">
        <path d="M548 361 L548 651.702 L1954 651.702 L1954 361 Z"/>
      </clipPath>
      <clipPath clipPathUnits="userSpaceOnUse" id="clipPath5">
        <path d="M548 1337.906 L548 1597 L1954 1597 L1954 1337.906 Z"/>
      </clipPath>
      <clipPath clipPathUnits="userSpaceOnUse" id="clipPath6">
        <path d="M548 361 L548 1337.906 L1954 1337.906 L1954 361 Z"/>
      </clipPath>
      <clipPath clipPathUnits="userSpaceOnUse" id="clipPath7">
        <path d="M548 681.0013 L548 1597 L1954 1597 L1954 681.0013 Z"/>
      </clipPath>
      <clipPath clipPathUnits="userSpaceOnUse" id="clipPath8">
        <path d="M548 361 L548 681.0013 L1954 681.0013 L1954 361 Z"/>
      </clipPath>
      <clipPath clipPathUnits="userSpaceOnUse" id="clipPath9">
        <path d="M548 848.0037 L548 1597 L1954 1597 L1954 848.0037 Z"/>
      </clipPath>
      <clipPath clipPathUnits="userSpaceOnUse" id="clipPath10">
        <path d="M548 361 L548 848.0037 L1954 848.0037 L1954 361 Z"/>
      </clipPath>
      <clipPath clipPathUnits="userSpaceOnUse" id="clipPath11">
        <path d="M548 1015.0061 L548 1597 L1954 1597 L1954 1015.0061 Z"/>
      </clipPath>
      <clipPath clipPathUnits="userSpaceOnUse" id="clipPath12">
        <path d="M548 361 L548 1015.0061 L1954 1015.0061 L1954 361 Z"/>
      </clipPath>
      <clipPath clipPathUnits="userSpaceOnUse" id="clipPath13">
        <path d="M548 1182.0085 L548 1597 L1954 1597 L1954 1182.0085 Z"/>
      </clipPath>
      <clipPath clipPathUnits="userSpaceOnUse" id="clipPath14">
        <path d="M548 361 L548 1182.0085 L1954 1182.0085 L1954 361 Z"/>
      </clipPath>
      <clipPath clipPathUnits="userSpaceOnUse" id="clipPath15">
        <path d="M548 1349.011 L548 1597 L1954 1597 L1954 1349.011 Z"/>
      </clipPath>
      <clipPath clipPathUnits="userSpaceOnUse" id="clipPath16">
        <path d="M548 361 L548 1349.011 L1954 1349.011 L1954 361 Z"/>
      </clipPath>
    </defs>
    <g fill="white" text-rendering="geometricPrecision" shape-rendering="geometricPrecision" transform="translate(-548,-361)" stroke="white">
      <rect x="548" width="1406" height="1236" y="361" clip-path="url(#clipPath2)" stroke="none"/>
    </g>
    <g fill="rgb(245,245,245)" text-rendering="geometricPrecision" shape-rendering="geometricPrecision" transform="matrix(1,0,0,1,-548,-361)" stroke="rgb(245,245,245)">
      <rect x="567.0625" y="491.0181" clip-path="url(#clipPath2)" width="1371.1364" rx="4" ry="4" height="972.9231" stroke="none"/>
      <rect x="567.0625" y="491.0181" clip-path="url(#clipPath2)" fill="rgb(235,235,235)" width="1371.1364" height="19" stroke="none"/>
    </g>
    <g font-size="15px" stroke-linecap="butt" transform="matrix(1,0,0,1,-548,-361)" text-rendering="geometricPrecision" font-family="'Consolas'" shape-rendering="geometricPrecision" stroke-miterlimit="1.45">
      <text x="1211.3954" xml:space="preserve" y="504.1583" clip-path="url(#clipPath2)" stroke="none">navigation</text>
      <text x="573.0625" xml:space="preserve" font-size="12px" y="513.9302" clip-path="url(#clipPath2)" stroke="none"> </text>
      <text x="573.0625" xml:space="preserve" font-size="12px" y="525.9302" clip-path="url(#clipPath2)" stroke="none"> </text>
      <text x="573.0625" xml:space="preserve" font-size="12px" y="537.9302" clip-path="url(#clipPath2)" stroke="none">entry/</text>
      <rect x="567.0625" y="491.0181" clip-path="url(#clipPath2)" fill="none" width="1371.1364" rx="4" ry="4" height="972.9231"/>
    </g>
    <g fill="url(#linearGradient1)" text-rendering="geometricPrecision" shape-rendering="geometricPrecision" transform="matrix(1,0,0,1,-548,-361)" stroke="url(#linearGradient1)">
      <rect x="594.8419" y="625.0009" clip-path="url(#clipPath3)" width="348.4465" rx="4" ry="4" height="155.125" stroke="none"/>
      <rect x="594.8419" y="625.0009" clip-path="url(#clipPath4)" fill="rgb(183,201,227)" width="348.4465" rx="4" ry="4" height="155.125" stroke="none"/>
    </g>
    <g text-rendering="geometricPrecision" stroke-miterlimit="1.45" shape-rendering="geometricPrecision" transform="matrix(1,0,0,1,-548,-361)" stroke-linecap="butt">
      <rect x="594.8419" y="625.0009" clip-path="url(#clipPath2)" fill="none" width="348.4465" rx="4" ry="4" height="155.125"/>
      <line y2="651.7021" fill="none" x1="594.8419" clip-path="url(#clipPath2)" x2="943.2883" y1="651.7021"/>
      <text x="757.3961" y="643.0654" clip-path="url(#clipPath2)" font-family="sans-serif" stroke="none" font-weight="bold" xml:space="preserve">wait</text>
      <text x="600.8419" xml:space="preserve" y="639.913" clip-path="url(#clipPath2)" font-family="'Consolas'" stroke="none"> </text>
      <text x="600.8419" xml:space="preserve" y="651.913" clip-path="url(#clipPath2)" font-family="'Consolas'" stroke="none"> </text>
      <text x="600.8419" xml:space="preserve" y="663.913" clip-path="url(#clipPath2)" font-family="'Consolas'" stroke="none">entry/</text>
    </g>
    <g fill="rgb(225,225,225)" text-rendering="geometricPrecision" shape-rendering="geometricPrecision" transform="matrix(1,0,0,1,-548,-361)" stroke="rgb(225,225,225)">
      <rect x="973.2883" y="562.3966" clip-path="url(#clipPath2)" width="935.4332" rx="4" ry="4" height="882.5446" stroke="none"/>
      <rect x="973.2883" y="562.3966" clip-path="url(#clipPath2)" fill="rgb(235,235,235)" width="935.4332" height="19" stroke="none"/>
    </g>
    <g font-size="15px" stroke-linecap="butt" transform="matrix(1,0,0,1,-548,-361)" text-rendering="geometricPrecision" font-family="'Consolas'" shape-rendering="geometricPrecision" stroke-miterlimit="1.45">
      <text x="1375.0283" xml:space="preserve" y="575.5367" clip-path="url(#clipPath2)" stroke="none">orbital_maneuvre</text>
      <text x="979.2883" xml:space="preserve" font-size="12px" y="585.3087" clip-path="url(#clipPath2)" stroke="none"> </text>
      <text x="979.2883" xml:space="preserve" font-size="12px" y="597.3087" clip-path="url(#clipPath2)" stroke="none"> </text>
      <text x="979.2883" xml:space="preserve" font-size="12px" y="609.3087" clip-path="url(#clipPath2)" stroke="none">entry/</text>
      <rect x="973.2883" y="562.3966" clip-path="url(#clipPath2)" fill="none" width="935.4332" rx="4" ry="4" height="882.5446"/>
    </g>
    <g fill="url(#linearGradient2)" text-rendering="geometricPrecision" shape-rendering="geometricPrecision" transform="matrix(1,0,0,1,-548,-361)" stroke="url(#linearGradient2)">
      <rect x="1498.2735" y="1311.2049" clip-path="url(#clipPath5)" width="374.8663" rx="4" ry="4" height="118.7363" stroke="none"/>
      <rect x="1498.2735" y="1311.2049" clip-path="url(#clipPath6)" fill="rgb(183,201,227)" width="374.8663" rx="4" ry="4" height="118.7363" stroke="none"/>
    </g>
    <g text-rendering="geometricPrecision" stroke-miterlimit="1.45" shape-rendering="geometricPrecision" transform="matrix(1,0,0,1,-548,-361)" stroke-linecap="butt">
      <rect x="1498.2735" y="1311.2049" clip-path="url(#clipPath2)" fill="none" width="374.8663" rx="4" ry="4" height="118.7363"/>
      <line y2="1337.906" fill="none" x1="1498.2735" clip-path="url(#clipPath2)" x2="1873.1398" y1="1337.906"/>
      <text x="1649.7065" y="1329.2693" clip-path="url(#clipPath2)" font-family="sans-serif" stroke="none" font-weight="bold" xml:space="preserve">idling_orient</text>
      <text x="1504.2734" xml:space="preserve" y="1326.1169" clip-path="url(#clipPath2)" font-family="'Consolas'" stroke="none"> </text>
      <text x="1504.2734" xml:space="preserve" y="1338.1169" clip-path="url(#clipPath2)" font-family="'Consolas'" stroke="none"> </text>
      <text x="1504.2734" xml:space="preserve" y="1350.1169" clip-path="url(#clipPath2)" font-family="'Consolas'" stroke="none">entry/</text>
      <text x="1504.2734" xml:space="preserve" y="1362.1169" clip-path="url(#clipPath2)" font-family="'Consolas'" stroke="none">desired_a = normalize_angle(</text>
      <text x="1504.2734" xml:space="preserve" y="1374.1169" clip-path="url(#clipPath2)" font-family="'Consolas'" stroke="none">360 - normalize_angle(transfer_center_angle + 180)</text>
      <text x="1504.2734" xml:space="preserve" y="1386.1169" clip-path="url(#clipPath2)" font-family="'Consolas'" stroke="none">)</text>
      <text x="1504.2734" xml:space="preserve" y="1398.1169" clip-path="url(#clipPath2)" font-family="'Consolas'" stroke="none">DISPATCH_VALUE(orientation, 'BACKWARD', desired_a)</text>
    </g>
    <g fill="url(#linearGradient3)" text-rendering="geometricPrecision" shape-rendering="geometricPrecision" transform="matrix(1,0,0,1,-548,-361)" stroke="url(#linearGradient3)">
      <rect x="1498.2735" y="654.3001" clip-path="url(#clipPath7)" width="374.8663" rx="4" ry="4" height="96.5265" stroke="none"/>
      <rect x="1498.2735" y="654.3001" clip-path="url(#clipPath8)" fill="rgb(183,201,227)" width="374.8663" rx="4" ry="4" height="96.5265" stroke="none"/>
    </g>
    <g text-rendering="geometricPrecision" stroke-miterlimit="1.45" shape-rendering="geometricPrecision" transform="matrix(1,0,0,1,-548,-361)" stroke-linecap="butt">
      <rect x="1498.2735" y="654.3001" clip-path="url(#clipPath2)" fill="none" width="374.8663" rx="4" ry="4" height="96.5265"/>
      <line y2="681.0013" fill="none" x1="1498.2735" clip-path="url(#clipPath2)" x2="1873.1398" y1="681.0013"/>
      <text x="1642.3618" y="672.3646" clip-path="url(#clipPath2)" font-family="sans-serif" stroke="none" font-weight="bold" xml:space="preserve">tracking_orient</text>
      <text x="1504.2734" xml:space="preserve" y="669.2122" clip-path="url(#clipPath2)" font-family="'Consolas'" stroke="none"> </text>
      <text x="1504.2734" xml:space="preserve" y="681.2122" clip-path="url(#clipPath2)" font-family="'Consolas'" stroke="none"> </text>
      <text x="1504.2734" xml:space="preserve" y="693.2122" clip-path="url(#clipPath2)" font-family="'Consolas'" stroke="none">entry/</text>
      <text x="1504.2734" xml:space="preserve" y="705.2122" clip-path="url(#clipPath2)" font-family="'Consolas'" stroke="none">DISPATCH(orientation, 'OBSERVE')</text>
    </g>
    <g fill="url(#linearGradient4)" text-rendering="geometricPrecision" shape-rendering="geometricPrecision" transform="matrix(1,0,0,1,-548,-361)" stroke="url(#linearGradient4)">
      <rect x="1004.9606" y="821.3025" clip-path="url(#clipPath9)" width="374.8663" rx="4" ry="4" height="96.5265" stroke="none"/>
      <rect x="1004.9606" y="821.3025" clip-path="url(#clipPath10)" fill="rgb(183,201,227)" width="374.8663" rx="4" ry="4" height="96.5265" stroke="none"/>
    </g>
    <g text-rendering="geometricPrecision" stroke-miterlimit="1.45" shape-rendering="geometricPrecision" transform="matrix(1,0,0,1,-548,-361)" stroke-linecap="butt">
      <rect x="1004.9606" y="821.3025" clip-path="url(#clipPath2)" fill="none" width="374.8663" rx="4" ry="4" height="96.5265"/>
      <line y2="848.0037" fill="none" x1="1004.9606" clip-path="url(#clipPath2)" x2="1379.8269" y1="848.0037"/>
      <text x="1176.3918" y="839.367" clip-path="url(#clipPath2)" font-family="sans-serif" stroke="none" font-weight="bold" xml:space="preserve">damp</text>
      <text x="1010.9606" xml:space="preserve" y="836.2147" clip-path="url(#clipPath2)" font-family="'Consolas'" stroke="none"> </text>
      <text x="1010.9606" xml:space="preserve" y="848.2147" clip-path="url(#clipPath2)" font-family="'Consolas'" stroke="none"> </text>
      <text x="1010.9606" xml:space="preserve" y="860.2147" clip-path="url(#clipPath2)" font-family="'Consolas'" stroke="none">entry/</text>
      <text x="1010.9606" xml:space="preserve" y="872.2147" clip-path="url(#clipPath2)" font-family="'Consolas'" stroke="none">DISPATCH(orientation, 'REDUCTING')</text>
    </g>
    <g fill="url(#linearGradient5)" text-rendering="geometricPrecision" shape-rendering="geometricPrecision" transform="matrix(1,0,0,1,-548,-361)" stroke="url(#linearGradient5)">
      <rect x="1004.9606" y="988.3049" clip-path="url(#clipPath11)" width="374.8663" rx="4" ry="4" height="96.5265" stroke="none"/>
      <rect x="1004.9606" y="988.3049" clip-path="url(#clipPath12)" fill="rgb(183,201,227)" width="374.8663" rx="4" ry="4" height="96.5265" stroke="none"/>
    </g>
    <g text-rendering="geometricPrecision" stroke-miterlimit="1.45" shape-rendering="geometricPrecision" transform="matrix(1,0,0,1,-548,-361)" stroke-linecap="butt">
      <rect x="1004.9606" y="988.3049" clip-path="url(#clipPath2)" fill="none" width="374.8663" rx="4" ry="4" height="96.5265"/>
      <line y2="1015.0061" fill="none" x1="1004.9606" clip-path="url(#clipPath2)" x2="1379.8269" y1="1015.0061"/>
      <text x="1112.0266" y="1006.3694" clip-path="url(#clipPath2)" font-family="sans-serif" stroke="none" font-weight="bold" xml:space="preserve">calculate_fuel_first_impulse</text>
      <text x="1010.9606" xml:space="preserve" y="1003.217" clip-path="url(#clipPath2)" font-family="'Consolas'" stroke="none"> </text>
      <text x="1010.9606" xml:space="preserve" y="1015.217" clip-path="url(#clipPath2)" font-family="'Consolas'" stroke="none"> </text>
      <text x="1010.9606" xml:space="preserve" y="1027.217" clip-path="url(#clipPath2)" font-family="'Consolas'" stroke="none">entry/</text>
      <text x="1010.9606" xml:space="preserve" y="1039.217" clip-path="url(#clipPath2)" font-family="'Consolas'" stroke="none">calc_fuel_first_impulse()</text>
    </g>
    <g fill="url(#linearGradient6)" text-rendering="geometricPrecision" shape-rendering="geometricPrecision" transform="matrix(1,0,0,1,-548,-361)" stroke="url(#linearGradient6)">
      <rect x="1004.9606" y="1155.3074" clip-path="url(#clipPath13)" width="374.8663" rx="4" ry="4" height="96.5265" stroke="none"/>
      <rect x="1004.9606" y="1155.3074" clip-path="url(#clipPath14)" fill="rgb(183,201,227)" width="374.8663" rx="4" ry="4" height="96.5265" stroke="none"/>
    </g>
    <g text-rendering="geometricPrecision" stroke-miterlimit="1.45" shape-rendering="geometricPrecision" transform="matrix(1,0,0,1,-548,-361)" stroke-linecap="butt">
      <rect x="1004.9606" y="1155.3074" clip-path="url(#clipPath2)" fill="none" width="374.8663" rx="4" ry="4" height="96.5265"/>
      <line y2="1182.0085" fill="none" x1="1004.9606" clip-path="url(#clipPath2)" x2="1379.8269" y1="1182.0085"/>
      <text x="1116.0344" y="1173.3718" clip-path="url(#clipPath2)" font-family="sans-serif" stroke="none" font-weight="bold" xml:space="preserve">start_engine_first_impulse</text>
      <text x="1010.9606" xml:space="preserve" y="1170.2195" clip-path="url(#clipPath2)" font-family="'Consolas'" stroke="none"> </text>
      <text x="1010.9606" xml:space="preserve" y="1182.2195" clip-path="url(#clipPath2)" font-family="'Consolas'" stroke="none"> </text>
      <text x="1010.9606" xml:space="preserve" y="1194.2195" clip-path="url(#clipPath2)" font-family="'Consolas'" stroke="none">entry/</text>
      <text x="1010.9606" xml:space="preserve" y="1206.2195" clip-path="url(#clipPath2)" font-family="'Consolas'" stroke="none">starting_engine()</text>
    </g>
    <g fill="url(#linearGradient7)" text-rendering="geometricPrecision" shape-rendering="geometricPrecision" transform="matrix(1,0,0,1,-548,-361)" stroke="url(#linearGradient7)">
      <rect x="1004.9606" y="1322.3098" clip-path="url(#clipPath15)" width="374.8663" rx="4" ry="4" height="96.5265" stroke="none"/>
      <rect x="1004.9606" y="1322.3098" clip-path="url(#clipPath16)" fill="rgb(183,201,227)" width="374.8663" rx="4" ry="4" height="96.5265" stroke="none"/>
    </g>
    <g text-rendering="geometricPrecision" stroke-miterlimit="1.45" shape-rendering="geometricPrecision" transform="matrix(1,0,0,1,-548,-361)" stroke-linecap="butt">
      <rect x="1004.9606" y="1322.3098" clip-path="url(#clipPath2)" fill="none" width="374.8663" rx="4" ry="4" height="96.5265"/>
      <line y2="1349.0109" fill="none" x1="1004.9606" clip-path="url(#clipPath2)" x2="1379.8269" y1="1349.0109"/>
      <text x="1116.3743" y="1340.3743" clip-path="url(#clipPath2)" font-family="sans-serif" stroke="none" font-weight="bold" xml:space="preserve">stop_engine_first_impulse</text>
      <text x="1010.9606" xml:space="preserve" y="1337.2219" clip-path="url(#clipPath2)" font-family="'Consolas'" stroke="none"> </text>
      <text x="1010.9606" xml:space="preserve" y="1349.2219" clip-path="url(#clipPath2)" font-family="'Consolas'" stroke="none"> </text>
      <text x="1010.9606" xml:space="preserve" y="1361.2219" clip-path="url(#clipPath2)" font-family="'Consolas'" stroke="none">entry/</text>
      <text x="1010.9606" xml:space="preserve" y="1373.2219" clip-path="url(#clipPath2)" font-family="'Consolas'" stroke="none">engine.set_traction(0)</text>
      <text x="1010.9606" xml:space="preserve" y="1385.2219" clip-path="url(#clipPath2)" font-family="'Consolas'" stroke="none">engine.set_state(STATE_OFF)</text>
    </g>
    <g fill="url(#linearGradient8)" text-rendering="geometricPrecision" shape-rendering="geometricPrecision" transform="matrix(1,0,0,1,-548,-361)" stroke="url(#linearGradient8)">
      <rect x="1498.2735" y="1155.3074" clip-path="url(#clipPath13)" width="374.8663" rx="4" ry="4" height="96.5265" stroke="none"/>
      <rect x="1498.2735" y="1155.3074" clip-path="url(#clipPath14)" fill="rgb(183,201,227)" width="374.8663" rx="4" ry="4" height="96.5265" stroke="none"/>
    </g>
    <g text-rendering="geometricPrecision" stroke-miterlimit="1.45" shape-rendering="geometricPrecision" transform="matrix(1,0,0,1,-548,-361)" stroke-linecap="butt">
      <rect x="1498.2735" y="1155.3074" clip-path="url(#clipPath2)" fill="none" width="374.8663" rx="4" ry="4" height="96.5265"/>
      <line y2="1182.0085" fill="none" x1="1498.2735" clip-path="url(#clipPath2)" x2="1873.1398" y1="1182.0085"/>
      <text x="1595.6685" y="1173.3718" clip-path="url(#clipPath2)" font-family="sans-serif" stroke="none" font-weight="bold" xml:space="preserve">calculate_fuel_second_impulse</text>
      <text x="1504.2734" xml:space="preserve" y="1170.2195" clip-path="url(#clipPath2)" font-family="'Consolas'" stroke="none"> </text>
      <text x="1504.2734" xml:space="preserve" y="1182.2195" clip-path="url(#clipPath2)" font-family="'Consolas'" stroke="none"> </text>
      <text x="1504.2734" xml:space="preserve" y="1194.2195" clip-path="url(#clipPath2)" font-family="'Consolas'" stroke="none">entry/</text>
      <text x="1504.2734" xml:space="preserve" y="1206.2195" clip-path="url(#clipPath2)" font-family="'Consolas'" stroke="none">calc_fuel_second_impulse()</text>
    </g>
    <g fill="url(#linearGradient9)" text-rendering="geometricPrecision" shape-rendering="geometricPrecision" transform="matrix(1,0,0,1,-548,-361)" stroke="url(#linearGradient9)">
      <rect x="1498.2735" y="988.3049" clip-path="url(#clipPath11)" width="374.8663" rx="4" ry="4" height="96.5265" stroke="none"/>
      <rect x="1498.2735" y="988.3049" clip-path="url(#clipPath12)" fill="rgb(183,201,227)" width="374.8663" rx="4" ry="4" height="96.5265" stroke="none"/>
    </g>
    <g text-rendering="geometricPrecision" stroke-miterlimit="1.45" shape-rendering="geometricPrecision" transform="matrix(1,0,0,1,-548,-361)" stroke-linecap="butt">
      <rect x="1498.2735" y="988.3049" clip-path="url(#clipPath2)" fill="none" width="374.8663" rx="4" ry="4" height="96.5265"/>
      <line y2="1015.0061" fill="none" x1="1498.2735" clip-path="url(#clipPath2)" x2="1873.1398" y1="1015.0061"/>
      <text x="1599.6763" y="1006.3694" clip-path="url(#clipPath2)" font-family="sans-serif" stroke="none" font-weight="bold" xml:space="preserve">start_engine_second_impulse</text>
      <text x="1504.2734" xml:space="preserve" y="1003.217" clip-path="url(#clipPath2)" font-family="'Consolas'" stroke="none"> </text>
      <text x="1504.2734" xml:space="preserve" y="1015.217" clip-path="url(#clipPath2)" font-family="'Consolas'" stroke="none"> </text>
      <text x="1504.2734" xml:space="preserve" y="1027.217" clip-path="url(#clipPath2)" font-family="'Consolas'" stroke="none">entry/</text>
      <text x="1504.2734" xml:space="preserve" y="1039.217" clip-path="url(#clipPath2)" font-family="'Consolas'" stroke="none">starting_engine()</text>
    </g>
    <g fill="url(#linearGradient10)" text-rendering="geometricPrecision" shape-rendering="geometricPrecision" transform="matrix(1,0,0,1,-548,-361)" stroke="url(#linearGradient10)">
      <rect x="1498.2735" y="821.3025" clip-path="url(#clipPath9)" width="374.8663" rx="4" ry="4" height="96.5265" stroke="none"/>
      <rect x="1498.2735" y="821.3025" clip-path="url(#clipPath10)" fill="rgb(183,201,227)" width="374.8663" rx="4" ry="4" height="96.5265" stroke="none"/>
    </g>
    <g text-rendering="geometricPrecision" stroke-miterlimit="1.45" shape-rendering="geometricPrecision" transform="matrix(1,0,0,1,-548,-361)" stroke-linecap="butt">
      <rect x="1498.2735" y="821.3025" clip-path="url(#clipPath2)" fill="none" width="374.8663" rx="4" ry="4" height="96.5265"/>
      <line y2="848.0037" fill="none" x1="1498.2735" clip-path="url(#clipPath2)" x2="1873.1398" y1="848.0037"/>
      <text x="1600.0161" y="839.367" clip-path="url(#clipPath2)" font-family="sans-serif" stroke="none" font-weight="bold" xml:space="preserve">stop_engine_second_impulse</text>
      <text x="1504.2734" xml:space="preserve" y="836.2147" clip-path="url(#clipPath2)" font-family="'Consolas'" stroke="none"> </text>
      <text x="1504.2734" xml:space="preserve" y="848.2147" clip-path="url(#clipPath2)" font-family="'Consolas'" stroke="none"> </text>
      <text x="1504.2734" xml:space="preserve" y="860.2147" clip-path="url(#clipPath2)" font-family="'Consolas'" stroke="none">entry/</text>
      <text x="1504.2734" xml:space="preserve" y="872.2147" clip-path="url(#clipPath2)" font-family="'Consolas'" stroke="none">engine.set_traction(0)</text>
      <text x="1504.2734" xml:space="preserve" y="884.2147" clip-path="url(#clipPath2)" font-family="'Consolas'" stroke="none">engine.set_state(STATE_OFF)</text>
    </g>
    <g fill="url(#linearGradient11)" text-rendering="geometricPrecision" shape-rendering="geometricPrecision" transform="matrix(1,0,0,1,-548,-361)" stroke="url(#linearGradient11)">
      <path d="M773.485 385.4453 C773.485 387.8864 771.5062 389.8652 769.0651 389.8652 C766.624 389.8652 764.6451 387.8864 764.6451 385.4453 C764.6451 383.0042 766.624 381.0254 769.0651 381.0254 C771.5062 381.0254 773.485 383.0042 773.485 385.4453 Z" stroke="none" clip-path="url(#clipPath2)"/>
    </g>
    <g text-rendering="geometricPrecision" stroke-miterlimit="1.45" shape-rendering="geometricPrecision" transform="matrix(1,0,0,1,-548,-361)" stroke-linecap="butt">
      <path fill="none" d="M773.485 385.4453 C773.485 387.8864 771.5062 389.8652 769.0651 389.8652 C766.624 389.8652 764.6451 387.8864 764.6451 385.4453 C764.6451 383.0042 766.624 381.0254 769.0651 381.0254 C771.5062 381.0254 773.485 383.0042 773.485 385.4453 Z" clip-path="url(#clipPath2)"/>
    </g>
    <g fill="rgb(255,204,0)" text-rendering="geometricPrecision" shape-rendering="geometricPrecision" transform="matrix(1,0,0,1,-548,-361)" stroke="rgb(255,204,0)">
      <path d="M567.0625 1493.9412 L740.7658 1493.9412 L740.7658 1508.9412 L755.7658 1508.9412 L755.7658 1581.4546 L567.0625 1581.4546 Z" stroke="none" clip-path="url(#clipPath2)"/>
      <path fill="white" d="M740.7658 1493.9412 L740.7658 1508.9412 L755.7658 1508.9412 Z" clip-path="url(#clipPath2)" fill-rule="evenodd" stroke="none"/>
    </g>
    <g text-rendering="geometricPrecision" stroke-miterlimit="1.45" shape-rendering="geometricPrecision" transform="matrix(1,0,0,1,-548,-361)" stroke-linecap="butt">
      <path fill="none" d="M567.0625 1493.9412 L740.7658 1493.9412 L740.7658 1508.9412 L755.7658 1508.9412 L755.7658 1581.4546 L567.0625 1581.4546 Z" clip-path="url(#clipPath2)"/>
      <path fill="none" d="M740.7658 1493.9412 L740.7658 1508.9412 L755.7658 1508.9412 Z" clip-path="url(#clipPath2)" fill-rule="evenodd"/>
      <text x="618.5294" xml:space="preserve" y="1522.61" clip-path="url(#clipPath2)" font-family="'Consolas'" stroke="none">Init scripts:</text>
      <text x="658.1154" xml:space="preserve" y="1534.61" clip-path="url(#clipPath2)" font-family="'Consolas'" stroke="none"> </text>
      <text x="595.4376" xml:space="preserve" y="1546.61" clip-path="url(#clipPath2)" font-family="'Consolas'" stroke="none">inspect_constants.py</text>
      <text x="611.9318" xml:space="preserve" y="1558.61" clip-path="url(#clipPath2)" font-family="'Consolas'" stroke="none">inspect_navi.py</text>
      <path fill="none" d="M1498.3169 702.5634 L951.3014 702.5634" clip-path="url(#clipPath2)"/>
      <path d="M943.3014 702.5634 L955.3014 707.5634 L952.3014 702.5634 L955.3014 697.5634 Z" clip-path="url(#clipPath2)" stroke="none"/>
      <text x="1124.5715" xml:space="preserve" y="688.3191" clip-path="url(#clipPath2)" font-family="sans-serif" stroke="none">TIME_TICK</text>
      <path fill="none" d="M769.0651 780.1526 L769.0651 869.5658 L996.9396 869.5658" clip-path="url(#clipPath2)"/>
      <path d="M1004.9396 869.5658 L992.9396 864.5658 L995.9396 869.5658 L992.9396 874.5658 Z" clip-path="url(#clipPath2)" stroke="none"/>
      <text x="767.8248" xml:space="preserve" y="861.5719" clip-path="url(#clipPath2)" font-family="sans-serif" stroke="none">TRANS_ORBIT</text>
      <path fill="none" d="M1322.8374 917.8161 L1322.8374 980.2927" clip-path="url(#clipPath2)"/>
      <path d="M1322.8374 988.2927 L1327.8374 976.2927 L1322.8374 979.2927 L1317.8374 976.2927 Z" clip-path="url(#clipPath2)" stroke="none"/>
      <text x="1230.0726" xml:space="preserve" y="957.5211" clip-path="url(#clipPath2)" font-family="sans-serif" stroke="none">TANGENTED</text>
      <path fill="none" d="M1323.7817 1084.8407 L1323.7817 1147.3368" clip-path="url(#clipPath2)"/>
      <path d="M1323.7817 1155.3368 L1328.7817 1143.3368 L1323.7817 1146.3368 L1318.7817 1143.3368 Z" clip-path="url(#clipPath2)" stroke="none"/>
      <text x="1180.9445" xml:space="preserve" y="1117.0195" clip-path="url(#clipPath2)" font-family="sans-serif" stroke="none">TIME_TICK </text>
      <text x="1137.5792" xml:space="preserve" y="1131.7207" clip-path="url(#clipPath2)" font-family="sans-serif" stroke="none">[is_angle_ok_first_impulse()]</text>
      <path fill="none" d="M1319.1559 1251.7915 L1319.1559 1314.3088" clip-path="url(#clipPath2)"/>
      <path d="M1319.1559 1322.3088 L1324.1559 1310.3088 L1319.1559 1313.3088 L1314.1559 1310.3088 Z" clip-path="url(#clipPath2)" stroke="none"/>
      <text x="1136.0358" xml:space="preserve" y="1283.8932" clip-path="url(#clipPath2)" font-family="sans-serif" stroke="none">TIME_TICK </text>
      <text x="1063.6315" xml:space="preserve" y="1298.5944" clip-path="url(#clipPath2)" font-family="sans-serif" stroke="none">[engine.get_fuel() &lt;= transfer_end_fuel]</text>
      <path fill="none" d="M1379.825 1370.573 L1490.3018 1370.573" clip-path="url(#clipPath2)"/>
      <path d="M1498.3018 1370.573 L1486.3018 1365.573 L1489.3018 1370.573 L1486.3018 1375.573 Z" clip-path="url(#clipPath2)" stroke="none"/>
      <text x="1406.7699" xml:space="preserve" y="1356.1804" clip-path="url(#clipPath2)" font-family="sans-serif" stroke="none">TIME_TICK</text>
      <path fill="none" d="M1802.3059 1311.1816 L1802.3059 1259.8271" clip-path="url(#clipPath2)"/>
      <path d="M1802.3059 1251.8271 L1797.3059 1263.8271 L1802.3059 1260.8271 L1807.3059 1263.8271 Z" clip-path="url(#clipPath2)" stroke="none"/>
      <text x="1703.8236" xml:space="preserve" y="1289.744" clip-path="url(#clipPath2)" font-family="sans-serif" stroke="none">BACKWARDED</text>
      <path fill="none" d="M1802.3059 1155.3146 L1802.3059 1092.8152" clip-path="url(#clipPath2)"/>
      <path d="M1802.3059 1084.8152 L1797.3059 1096.8152 L1802.3059 1093.8152 L1807.3059 1096.8152 Z" clip-path="url(#clipPath2)" stroke="none"/>
      <text x="1641.2358" xml:space="preserve" y="1120.3838" clip-path="url(#clipPath2)" font-family="sans-serif" stroke="none">TIME_TICK </text>
      <text x="1588.188" xml:space="preserve" y="1135.085" clip-path="url(#clipPath2)" font-family="sans-serif" stroke="none">[is_angle_ok_second_impulse()]</text>
      <path fill="none" d="M1799.3547 988.3041 L1799.3547 925.825" clip-path="url(#clipPath2)"/>
      <path d="M1799.3547 917.825 L1794.3547 929.825 L1799.3547 926.825 L1804.3547 929.825 Z" clip-path="url(#clipPath2)" stroke="none"/>
      <text x="1617.1896" xml:space="preserve" y="948.9547" clip-path="url(#clipPath2)" font-family="sans-serif" stroke="none">TIME_TICK </text>
      <text x="1544.7853" xml:space="preserve" y="963.6559" clip-path="url(#clipPath2)" font-family="sans-serif" stroke="none">[engine.get_fuel() &lt;= transfer_end_fuel]</text>
      <path fill="none" d="M1797.8792 821.2817 L1797.8792 758.8285" clip-path="url(#clipPath2)"/>
      <path d="M1797.8792 750.8285 L1792.8792 762.8285 L1797.8792 759.8285 L1802.8792 762.8285 Z" clip-path="url(#clipPath2)" stroke="none"/>
      <text x="1712.4365" xml:space="preserve" y="790.7784" clip-path="url(#clipPath2)" font-family="sans-serif" stroke="none">TIME_TICK</text>
      <path fill="none" d="M769.0651 389.897 L769.0651 616.9693" clip-path="url(#clipPath2)"/>
      <path d="M769.0651 624.9693 L774.0651 612.9693 L769.0651 615.9693 L764.0651 612.9693 Z" clip-path="url(#clipPath2)" stroke="none"/>
    </g>
  </g>
</svg>
