<?xml version="1.0" encoding="UTF-8"?><svg xmlns="http://www.w3.org/2000/svg" xmlns:xlink="http://www.w3.org/1999/xlink" fill-opacity="1" color-rendering="auto" color-interpolation="auto" text-rendering="auto" stroke="black" stroke-linecap="square" width="1379" stroke-miterlimit="10" shape-rendering="auto" stroke-opacity="1" fill="black" stroke-dasharray="none" font-weight="normal" stroke-width="1" height="962" font-family="'Dialog'" font-style="normal" stroke-linejoin="miter" font-size="12px" stroke-dashoffset="0" image-rendering="auto">
  <!--Generated by ySVG 2.6-->
  <defs id="genericDefs"/>
  <g>
    <defs id="defs1">
      <linearGradient x1="607.5726" gradientUnits="userSpaceOnUse" x2="920.7894" y1="174.6566" y2="265.9079" id="linearGradient1" spreadMethod="reflect">
        <stop stop-opacity="1" stop-color="rgb(232,238,247)" offset="0%"/>
        <stop stop-opacity="1" stop-color="rgb(183,201,227)" offset="100%"/>
      </linearGradient>
      <linearGradient x1="183.3355" gradientUnits="userSpaceOnUse" x2="480.157" y1="253.1129" y2="324.6897" id="linearGradient2" spreadMethod="reflect">
        <stop stop-opacity="1" stop-color="rgb(232,238,247)" offset="0%"/>
        <stop stop-opacity="1" stop-color="rgb(183,201,227)" offset="100%"/>
      </linearGradient>
      <linearGradient x1="183.3355" gradientUnits="userSpaceOnUse" x2="480.157" y1="645.6417" y2="717.2185" id="linearGradient3" spreadMethod="reflect">
        <stop stop-opacity="1" stop-color="rgb(232,238,247)" offset="0%"/>
        <stop stop-opacity="1" stop-color="rgb(183,201,227)" offset="100%"/>
      </linearGradient>
      <linearGradient x1="327.3264" gradientUnits="userSpaceOnUse" x2="336.1662" y1="179.4117" y2="196.4117" id="linearGradient4" spreadMethod="reflect">
        <stop stop-opacity="1" stop-color="rgb(51,51,51)" offset="0%"/>
        <stop stop-opacity="1" stop-color="black" offset="100%"/>
      </linearGradient>
      <linearGradient x1="309.2463" gradientUnits="userSpaceOnUse" x2="354.2463" y1="457.4242" y2="502.4242" id="linearGradient5" spreadMethod="reflect">
        <stop stop-opacity="0.902" stop-color="rgb(255,255,255)" offset="0%"/>
        <stop stop-opacity="0.8" stop-color="rgb(212,212,212)" offset="100%"/>
      </linearGradient>
      <linearGradient x1="843.0046" gradientUnits="userSpaceOnUse" x2="851.8444" y1="15.5556" y2="32.5556" id="linearGradient6" spreadMethod="reflect">
        <stop stop-opacity="1" stop-color="rgb(51,51,51)" offset="0%"/>
        <stop stop-opacity="1" stop-color="black" offset="100%"/>
      </linearGradient>
      <clipPath clipPathUnits="userSpaceOnUse" id="clipPath1">
        <path d="M0 0 L1379 0 L1379 962 L0 962 L0 0 Z"/>
      </clipPath>
      <clipPath clipPathUnits="userSpaceOnUse" id="clipPath2">
        <path d="M63 0 L1442 0 L1442 962 L63 962 L63 0 Z"/>
      </clipPath>
      <clipPath clipPathUnits="userSpaceOnUse" id="clipPath3">
        <path d="M63 174.6566 L63 962 L1442 962 L1442 174.6566 Z"/>
      </clipPath>
      <clipPath clipPathUnits="userSpaceOnUse" id="clipPath4">
        <path d="M63 0 L63 174.6566 L1442 174.6566 L1442 0 Z"/>
      </clipPath>
      <clipPath clipPathUnits="userSpaceOnUse" id="clipPath5">
        <path d="M63 253.1129 L63 962 L1442 962 L1442 253.1129 Z"/>
      </clipPath>
      <clipPath clipPathUnits="userSpaceOnUse" id="clipPath6">
        <path d="M63 0 L63 253.1129 L1442 253.1129 L1442 0 Z"/>
      </clipPath>
      <clipPath clipPathUnits="userSpaceOnUse" id="clipPath7">
        <path d="M63 645.6417 L63 962 L1442 962 L1442 645.6417 Z"/>
      </clipPath>
      <clipPath clipPathUnits="userSpaceOnUse" id="clipPath8">
        <path d="M63 0 L63 645.6417 L1442 645.6417 L1442 0 Z"/>
      </clipPath>
      <clipPath clipPathUnits="userSpaceOnUse" id="clipPath9">
        <path d="M-238.2463 -441.4242 L1140.7538 -441.4242 L1140.7538 520.5758 L-238.2463 520.5758 L-238.2463 -441.4242 Z"/>
      </clipPath>
    </defs>
    <g fill="white" text-rendering="geometricPrecision" shape-rendering="geometricPrecision" transform="translate(-63,0)" stroke="white">
      <rect x="63" width="1379" height="962" y="0" clip-path="url(#clipPath2)" stroke="none"/>
    </g>
    <g fill="rgb(245,245,245)" text-rendering="geometricPrecision" shape-rendering="geometricPrecision" transform="matrix(1,0,0,1,-63,0)" stroke="rgb(245,245,245)">
      <rect x="82.6611" y="61.5947" clip-path="url(#clipPath2)" width="1343.6083" rx="4" ry="4" height="769.8118" stroke="none"/>
      <rect x="82.6611" y="61.5947" clip-path="url(#clipPath2)" fill="rgb(235,235,235)" width="1343.6083" height="19" stroke="none"/>
    </g>
    <g font-size="15px" stroke-linecap="butt" transform="matrix(1,0,0,1,-63,0)" text-rendering="geometricPrecision" font-family="'Consolas'" shape-rendering="geometricPrecision" stroke-miterlimit="1.45">
      <text x="709.1064" xml:space="preserve" y="74.7348" clip-path="url(#clipPath2)" stroke="none">orientation</text>
      <text x="88.6611" xml:space="preserve" font-size="12px" y="84.5068" clip-path="url(#clipPath2)" stroke="none"> </text>
      <text x="88.6611" xml:space="preserve" font-size="12px" y="96.5068" clip-path="url(#clipPath2)" stroke="none"> </text>
      <text x="88.6611" xml:space="preserve" font-size="12px" y="108.5068" clip-path="url(#clipPath2)" stroke="none">entry/</text>
      <rect x="82.6611" y="61.5947" clip-path="url(#clipPath2)" fill="none" width="1343.6083" rx="4" ry="4" height="769.8118"/>
    </g>
    <g fill="url(#linearGradient1)" text-rendering="geometricPrecision" shape-rendering="geometricPrecision" transform="matrix(1,0,0,1,-63,0)" stroke="url(#linearGradient1)">
      <rect x="607.5726" y="147.9554" clip-path="url(#clipPath3)" width="313.2168" rx="4" ry="4" height="117.9525" stroke="none"/>
      <rect x="607.5726" y="147.9554" clip-path="url(#clipPath4)" fill="rgb(183,201,227)" width="313.2168" rx="4" ry="4" height="117.9525" stroke="none"/>
    </g>
    <g text-rendering="geometricPrecision" stroke-miterlimit="1.45" shape-rendering="geometricPrecision" transform="matrix(1,0,0,1,-63,0)" stroke-linecap="butt">
      <rect x="607.5726" y="147.9554" clip-path="url(#clipPath2)" fill="none" width="313.2168" rx="4" ry="4" height="117.9525"/>
      <line y2="174.6566" fill="none" x1="607.5726" clip-path="url(#clipPath2)" x2="920.7894" y1="174.6566"/>
      <text x="752.5121" y="166.0199" clip-path="url(#clipPath2)" font-family="sans-serif" stroke="none" font-weight="bold" xml:space="preserve">wait</text>
      <text x="613.5726" xml:space="preserve" y="162.8675" clip-path="url(#clipPath2)" font-family="'Consolas'" stroke="none"> </text>
      <text x="613.5726" xml:space="preserve" y="174.8675" clip-path="url(#clipPath2)" font-family="'Consolas'" stroke="none"> </text>
      <text x="613.5726" xml:space="preserve" y="186.8675" clip-path="url(#clipPath2)" font-family="'Consolas'" stroke="none">entry/</text>
    </g>
    <g fill="rgb(225,225,225)" text-rendering="geometricPrecision" shape-rendering="geometricPrecision" transform="matrix(1,0,0,1,-63,0)" stroke="rgb(225,225,225)">
      <rect x="158.4983" y="110.3505" clip-path="url(#clipPath2)" width="351.1224" rx="4" ry="4" height="647.1975" stroke="none"/>
      <rect x="158.4983" y="110.3505" clip-path="url(#clipPath2)" fill="rgb(235,235,235)" width="351.1224" height="19" stroke="none"/>
    </g>
    <g font-size="15px" stroke-linecap="butt" transform="matrix(1,0,0,1,-63,0)" text-rendering="geometricPrecision" font-family="'Consolas'" shape-rendering="geometricPrecision" stroke-miterlimit="1.45">
      <text x="296.9477" xml:space="preserve" y="123.4906" clip-path="url(#clipPath2)" stroke="none">reduction</text>
      <text x="164.4983" xml:space="preserve" font-size="12px" y="133.2626" clip-path="url(#clipPath2)" stroke="none"> </text>
      <text x="164.4983" xml:space="preserve" font-size="12px" y="145.2626" clip-path="url(#clipPath2)" stroke="none"> </text>
      <text x="164.4983" xml:space="preserve" font-size="12px" y="157.2626" clip-path="url(#clipPath2)" stroke="none">entry/</text>
      <text x="164.4983" xml:space="preserve" font-size="12px" y="169.2626" clip-path="url(#clipPath2)" stroke="none">calculate_reduction()</text>
      <rect x="158.4983" y="110.3505" clip-path="url(#clipPath2)" fill="none" width="351.1224" rx="4" ry="4" height="647.1975"/>
    </g>
    <g fill="url(#linearGradient2)" text-rendering="geometricPrecision" shape-rendering="geometricPrecision" transform="matrix(1,0,0,1,-63,0)" stroke="url(#linearGradient2)">
      <rect x="183.3355" y="226.4117" clip-path="url(#clipPath5)" width="296.8215" rx="4" ry="4" height="98.278" stroke="none"/>
      <rect x="183.3355" y="226.4117" clip-path="url(#clipPath6)" fill="rgb(183,201,227)" width="296.8215" rx="4" ry="4" height="98.278" stroke="none"/>
    </g>
    <g text-rendering="geometricPrecision" stroke-miterlimit="1.45" shape-rendering="geometricPrecision" transform="matrix(1,0,0,1,-63,0)" stroke-linecap="butt">
      <rect x="183.3355" y="226.4117" clip-path="url(#clipPath2)" fill="none" width="296.8215" rx="4" ry="4" height="98.278"/>
      <line y2="253.1128" fill="none" x1="183.3355" clip-path="url(#clipPath2)" x2="480.157" y1="253.1128"/>
      <text x="289.4064" y="244.4761" clip-path="url(#clipPath2)" font-family="sans-serif" stroke="none" font-weight="bold" xml:space="preserve">wait_reduction</text>
      <text x="189.3355" xml:space="preserve" y="241.3238" clip-path="url(#clipPath2)" font-family="'Consolas'" stroke="none"> </text>
      <text x="189.3355" xml:space="preserve" y="253.3238" clip-path="url(#clipPath2)" font-family="'Consolas'" stroke="none"> </text>
      <text x="189.3355" xml:space="preserve" y="265.3238" clip-path="url(#clipPath2)" font-family="'Consolas'" stroke="none">entry/</text>
    </g>
    <g fill="url(#linearGradient3)" text-rendering="geometricPrecision" shape-rendering="geometricPrecision" transform="matrix(1,0,0,1,-63,0)" stroke="url(#linearGradient3)">
      <rect x="183.3355" y="618.9405" clip-path="url(#clipPath7)" width="296.8215" rx="4" ry="4" height="98.278" stroke="none"/>
      <rect x="183.3355" y="618.9405" clip-path="url(#clipPath8)" fill="rgb(183,201,227)" width="296.8215" rx="4" ry="4" height="98.278" stroke="none"/>
    </g>
    <g text-rendering="geometricPrecision" stroke-miterlimit="1.45" shape-rendering="geometricPrecision" transform="matrix(1,0,0,1,-63,0)" stroke-linecap="butt">
      <rect x="183.3355" y="618.9405" clip-path="url(#clipPath2)" fill="none" width="296.8215" rx="4" ry="4" height="98.278"/>
      <line y2="645.6417" fill="none" x1="183.3355" clip-path="url(#clipPath2)" x2="480.157" y1="645.6417"/>
      <text x="263.7307" y="637.0049" clip-path="url(#clipPath2)" font-family="sans-serif" stroke="none" font-weight="bold" xml:space="preserve">checking_for_reduction</text>
      <text x="189.3355" xml:space="preserve" y="633.8526" clip-path="url(#clipPath2)" font-family="'Consolas'" stroke="none"> </text>
      <text x="189.3355" xml:space="preserve" y="645.8526" clip-path="url(#clipPath2)" font-family="'Consolas'" stroke="none"> </text>
      <text x="189.3355" xml:space="preserve" y="657.8526" clip-path="url(#clipPath2)" font-family="'Consolas'" stroke="none">entry/</text>
      <text x="189.3355" xml:space="preserve" y="669.8526" clip-path="url(#clipPath2)" font-family="'Consolas'" stroke="none">start_reduction()</text>
    </g>
    <g fill="url(#linearGradient4)" text-rendering="geometricPrecision" shape-rendering="geometricPrecision" transform="matrix(1,0,0,1,-63,0)" stroke="url(#linearGradient4)">
      <path d="M336.1662 187.9117 C336.1662 190.3527 334.1873 192.3316 331.7463 192.3316 C329.3052 192.3316 327.3264 190.3527 327.3264 187.9117 C327.3264 185.4706 329.3052 183.4918 331.7463 183.4918 C334.1873 183.4918 336.1662 185.4706 336.1662 187.9117 Z" stroke="none" clip-path="url(#clipPath2)"/>
    </g>
    <g text-rendering="geometricPrecision" stroke-miterlimit="1.45" shape-rendering="geometricPrecision" transform="matrix(1,0,0,1,-63,0)" stroke-linecap="butt">
      <path fill="none" d="M336.1662 187.9117 C336.1662 190.3527 334.1873 192.3316 331.7463 192.3316 C329.3052 192.3316 327.3264 190.3527 327.3264 187.9117 C327.3264 185.4706 329.3052 183.4918 331.7463 183.4918 C334.1873 183.4918 336.1662 185.4706 336.1662 187.9117 Z" clip-path="url(#clipPath2)"/>
    </g>
    <g text-rendering="geometricPrecision" shape-rendering="geometricPrecision" transform="matrix(1,0,0,1,238.2463,441.4242)" image-rendering="optimizeQuality">
      <path fill="url(#linearGradient5)" d="M331.7463 457.4242 L354.2463 479.9242 L331.7463 502.4242 L309.2463 479.9242 Z" clip-path="url(#clipPath2)" transform="matrix(1,0,0,1,-301.2463,-441.4242)" stroke="none" image-rendering="auto"/>
    </g>
    <g stroke-linecap="butt" transform="matrix(1,0,0,1,-63,0)" fill="rgb(227,139,0)" text-rendering="geometricPrecision" shape-rendering="geometricPrecision" stroke="rgb(227,139,0)" stroke-miterlimit="1.45">
      <path fill="none" d="M331.7463 457.4242 L354.2463 479.9242 L331.7463 502.4242 L309.2463 479.9242 Z" clip-path="url(#clipPath2)"/>
    </g>
    <g text-rendering="geometricPrecision" stroke-miterlimit="1.45" shape-rendering="geometricPrecision" transform="matrix(1,0,0,1,-63,0)" stroke-linecap="butt">
      <path fill="none" d="M607.5369 206.9316 L517.6096 206.9316" clip-path="url(#clipPath2)"/>
      <path d="M509.6096 206.9316 L521.6096 211.9316 L518.6096 206.9316 L521.6096 201.9316 Z" clip-path="url(#clipPath2)" stroke="none"/>
      <text x="524.2589" xml:space="preserve" y="193.3813" clip-path="url(#clipPath2)" font-family="sans-serif" stroke="none">REDUCTING</text>
      <path fill="none" d="M220.2887 324.6769 L220.2887 610.9275" clip-path="url(#clipPath2)"/>
      <path d="M220.2887 618.9275 L225.2887 606.9275 L220.2887 609.9275 L215.2887 606.9275 Z" clip-path="url(#clipPath2)" stroke="none"/>
      <text x="225.6272" xml:space="preserve" y="367.9678" clip-path="url(#clipPath2)" font-family="sans-serif" stroke="none">TIME_TICK</text>
      <path fill="none" d="M331.7463 192.3193 L331.7463 218.4165" clip-path="url(#clipPath2)"/>
      <path d="M331.7463 226.4165 L336.7463 214.4165 L331.7463 217.4165 L326.7463 214.4165 Z" clip-path="url(#clipPath2)" stroke="none"/>
      <path fill="none" d="M331.7463 618.9735 L331.7463 510.4315" clip-path="url(#clipPath2)"/>
      <path d="M331.7463 502.4315 L326.7463 514.4315 L331.7463 511.4315 L336.7463 514.4315 Z" clip-path="url(#clipPath2)" stroke="none"/>
      <text x="340.2475" xml:space="preserve" y="565.3962" clip-path="url(#clipPath2)" font-family="sans-serif" stroke="none">TIME_TICK</text>
      <path fill="none" d="M331.7463 457.4211 L331.7463 332.7128" clip-path="url(#clipPath2)"/>
      <path d="M331.7463 324.7128 L326.7463 336.7128 L331.7463 333.7128 L336.7463 336.7128 Z" clip-path="url(#clipPath2)" stroke="none"/>
      <text x="346.5481" xml:space="preserve" y="392.141" clip-path="url(#clipPath2)" font-family="sans-serif" stroke="none">[decreasing]</text>
    </g>
    <g fill="rgb(225,225,225)" text-rendering="geometricPrecision" shape-rendering="geometricPrecision" transform="matrix(1,0,0,1,-63,0)" stroke="rgb(225,225,225)">
      <rect x="591.1597" y="292.3798" clip-path="url(#clipPath2)" width="351.1224" rx="4" ry="4" height="213.5726" stroke="none"/>
      <rect x="591.1597" y="292.3798" clip-path="url(#clipPath2)" fill="rgb(235,235,235)" width="351.1224" height="19" stroke="none"/>
    </g>
    <g font-size="15px" stroke-linecap="butt" transform="matrix(1,0,0,1,-63,0)" text-rendering="geometricPrecision" font-family="'Consolas'" shape-rendering="geometricPrecision" stroke-miterlimit="1.45">
      <text x="737.8561" xml:space="preserve" y="305.5199" clip-path="url(#clipPath2)" stroke="none">tangent</text>
      <text x="601.1597" xml:space="preserve" font-size="12px" y="311.2919" clip-path="url(#clipPath2)" stroke="none"> </text>
      <text x="601.1597" xml:space="preserve" font-size="12px" y="323.2919" clip-path="url(#clipPath2)" stroke="none"> </text>
      <text x="601.1597" xml:space="preserve" font-size="12px" y="335.2919" clip-path="url(#clipPath2)" stroke="none">entry/</text>
      <text x="601.1597" xml:space="preserve" font-size="12px" y="347.2919" clip-path="url(#clipPath2)" stroke="none">calculate_acc_inertia()</text>
      <text x="601.1597" xml:space="preserve" font-size="12px" y="359.2919" clip-path="url(#clipPath2)" stroke="none"> </text>
      <text x="601.1597" xml:space="preserve" font-size="12px" y="371.2919" clip-path="url(#clipPath2)" stroke="none">TIME_TICK/</text>
      <text x="601.1597" xml:space="preserve" font-size="12px" y="383.2919" clip-path="url(#clipPath2)" stroke="none">global tangented, active</text>
      <text x="601.1597" xml:space="preserve" font-size="12px" y="395.2919" clip-path="url(#clipPath2)" stroke="none">calc_tangent_data()</text>
      <text x="601.1597" xml:space="preserve" font-size="12px" y="407.2919" clip-path="url(#clipPath2)" stroke="none">if is_orientation_needed():</text>
      <text x="601.1597" xml:space="preserve" font-size="12px" y="419.2919" clip-path="url(#clipPath2)" stroke="none">    calculate_torsion()</text>
      <text x="601.1597" xml:space="preserve" font-size="12px" y="431.2919" clip-path="url(#clipPath2)" stroke="none">elif active:</text>
      <text x="601.1597" xml:space="preserve" font-size="12px" y="443.2919" clip-path="url(#clipPath2)" stroke="none">    active = False</text>
      <text x="601.1597" xml:space="preserve" font-size="12px" y="455.2919" clip-path="url(#clipPath2)" stroke="none">    if not tangented:</text>
      <text x="601.1597" xml:space="preserve" font-size="12px" y="467.2919" clip-path="url(#clipPath2)" stroke="none">        DISPATCH(navigation, 'TANGENTED')</text>
      <text x="601.1597" xml:space="preserve" font-size="12px" y="479.2919" clip-path="url(#clipPath2)" stroke="none">        tangented = True</text>
      <text x="601.1597" xml:space="preserve" font-size="12px" y="491.2919" clip-path="url(#clipPath2)" stroke="none"> </text>
      <rect x="591.1597" y="292.3798" clip-path="url(#clipPath2)" fill="none" width="351.1224" rx="4" ry="4" height="213.5726"/>
      <path fill="none" d="M354.2779 479.9242 L583.1686 479.9242" clip-path="url(#clipPath2)"/>
      <path d="M591.1686 479.9242 L579.1686 474.9242 L582.1686 479.9242 L579.1686 484.9242 Z" stroke="none" clip-path="url(#clipPath2)"/>
      <text x="451.6619" font-size="12px" y="499.6439" clip-path="url(#clipPath2)" font-family="sans-serif" stroke="none" xml:space="preserve">[else]</text>
    </g>
    <g fill="rgb(225,225,225)" text-rendering="geometricPrecision" shape-rendering="geometricPrecision" transform="matrix(1,0,0,1,-63,0)" stroke="rgb(225,225,225)">
      <rect x="1028.6387" y="598.8339" clip-path="url(#clipPath2)" width="351.1224" rx="4" ry="4" height="213.5726" stroke="none"/>
      <rect x="1028.6387" y="598.8339" clip-path="url(#clipPath2)" fill="rgb(235,235,235)" width="351.1224" height="19" stroke="none"/>
    </g>
    <g font-size="15px" stroke-linecap="butt" transform="matrix(1,0,0,1,-63,0)" text-rendering="geometricPrecision" font-family="'Consolas'" shape-rendering="geometricPrecision" stroke-miterlimit="1.45">
      <text x="1175.3352" xml:space="preserve" y="611.9741" clip-path="url(#clipPath2)" stroke="none">observe</text>
      <text x="1042.6388" xml:space="preserve" font-size="12px" y="613.746" clip-path="url(#clipPath2)" stroke="none"> </text>
      <text x="1042.6388" xml:space="preserve" font-size="12px" y="625.746" clip-path="url(#clipPath2)" stroke="none"> </text>
      <text x="1042.6388" xml:space="preserve" font-size="12px" y="637.746" clip-path="url(#clipPath2)" stroke="none">entry/</text>
      <text x="1042.6388" xml:space="preserve" font-size="12px" y="649.746" clip-path="url(#clipPath2)" stroke="none"> </text>
      <text x="1042.6388" xml:space="preserve" font-size="12px" y="661.746" clip-path="url(#clipPath2)" stroke="none">TIME_TICK/</text>
      <text x="1042.6388" xml:space="preserve" font-size="12px" y="673.746" clip-path="url(#clipPath2)" stroke="none">global observed, active</text>
      <text x="1042.6388" xml:space="preserve" font-size="12px" y="685.746" clip-path="url(#clipPath2)" stroke="none">calc_observing_data()</text>
      <text x="1042.6388" xml:space="preserve" font-size="12px" y="697.746" clip-path="url(#clipPath2)" stroke="none">if is_orientation_needed():</text>
      <text x="1042.6388" xml:space="preserve" font-size="12px" y="709.746" clip-path="url(#clipPath2)" stroke="none">    calculate_torsion()</text>
      <text x="1042.6388" xml:space="preserve" font-size="12px" y="721.746" clip-path="url(#clipPath2)" stroke="none">elif active:</text>
      <text x="1042.6388" xml:space="preserve" font-size="12px" y="733.746" clip-path="url(#clipPath2)" stroke="none">    active = False</text>
      <text x="1042.6388" xml:space="preserve" font-size="12px" y="745.746" clip-path="url(#clipPath2)" stroke="none">    if not observed:</text>
      <text x="1042.6388" xml:space="preserve" font-size="12px" y="757.746" clip-path="url(#clipPath2)" stroke="none">        DISPATCH(cpu, 'OBSERVED')</text>
      <text x="1042.6388" xml:space="preserve" font-size="12px" y="769.746" clip-path="url(#clipPath2)" stroke="none">        observed = True</text>
      <rect x="1028.6387" y="598.8339" clip-path="url(#clipPath2)" fill="none" width="351.1224" rx="4" ry="4" height="213.5726"/>
    </g>
    <g fill="rgb(225,225,225)" text-rendering="geometricPrecision" shape-rendering="geometricPrecision" transform="matrix(1,0,0,1,-63,0)" stroke="rgb(225,225,225)">
      <rect x="591.1597" y="598.8339" clip-path="url(#clipPath2)" width="351.1224" rx="4" ry="4" height="213.5726" stroke="none"/>
      <rect x="591.1597" y="598.8339" clip-path="url(#clipPath2)" fill="rgb(235,235,235)" width="351.1224" height="19" stroke="none"/>
    </g>
    <g font-size="15px" stroke-linecap="butt" transform="matrix(1,0,0,1,-63,0)" text-rendering="geometricPrecision" font-family="'Consolas'" shape-rendering="geometricPrecision" stroke-miterlimit="1.45">
      <text x="733.7326" xml:space="preserve" y="611.9741" clip-path="url(#clipPath2)" stroke="none">backward</text>
      <text x="601.1597" xml:space="preserve" font-size="12px" y="613.746" clip-path="url(#clipPath2)" stroke="none"> </text>
      <text x="601.1597" xml:space="preserve" font-size="12px" y="625.746" clip-path="url(#clipPath2)" stroke="none"> </text>
      <text x="601.1597" xml:space="preserve" font-size="12px" y="637.746" clip-path="url(#clipPath2)" stroke="none">entry/</text>
      <text x="601.1597" xml:space="preserve" font-size="12px" y="649.746" clip-path="url(#clipPath2)" stroke="none"> </text>
      <text x="601.1597" xml:space="preserve" font-size="12px" y="661.746" clip-path="url(#clipPath2)" stroke="none">TIME_TICK/</text>
      <text x="601.1597" xml:space="preserve" font-size="12px" y="673.746" clip-path="url(#clipPath2)" stroke="none">global backwarded, active</text>
      <text x="601.1597" xml:space="preserve" font-size="12px" y="685.746" clip-path="url(#clipPath2)" stroke="none">if is_orientation_needed():</text>
      <text x="601.1597" xml:space="preserve" font-size="12px" y="697.746" clip-path="url(#clipPath2)" stroke="none">    calculate_torsion()</text>
      <text x="601.1597" xml:space="preserve" font-size="12px" y="709.746" clip-path="url(#clipPath2)" stroke="none">elif active:</text>
      <text x="601.1597" xml:space="preserve" font-size="12px" y="721.746" clip-path="url(#clipPath2)" stroke="none">    active = False</text>
      <text x="601.1597" xml:space="preserve" font-size="12px" y="733.746" clip-path="url(#clipPath2)" stroke="none">    if not backwarded:</text>
      <text x="601.1597" xml:space="preserve" font-size="12px" y="745.746" clip-path="url(#clipPath2)" stroke="none">        DISPATCH(navigation, 'BACKWARDED')</text>
      <text x="601.1597" xml:space="preserve" font-size="12px" y="757.746" clip-path="url(#clipPath2)" stroke="none">        backwarded = True</text>
      <rect x="591.1597" y="598.8339" clip-path="url(#clipPath2)" fill="none" width="351.1224" rx="4" ry="4" height="213.5726"/>
      <path fill="none" d="M879.6301 505.9326 L879.6301 590.8682" clip-path="url(#clipPath2)"/>
      <path d="M879.6301 598.8682 L884.6301 586.8682 L879.6301 589.8682 L874.6301 586.8682 Z" stroke="none" clip-path="url(#clipPath2)"/>
      <text x="739.9601" font-size="12px" y="530.8026" clip-path="url(#clipPath2)" font-family="sans-serif" stroke="none" xml:space="preserve">BACKWARD(a)/</text>
      <text x="703.5734" font-size="12px" y="545.5037" clip-path="url(#clipPath2)" font-family="sans-serif" stroke="none" xml:space="preserve">global desired_a, desired_a_v</text>
      <text x="731.7658" font-size="12px" y="560.2049" clip-path="url(#clipPath2)" font-family="sans-serif" stroke="none" xml:space="preserve">desired_a = float(a)</text>
      <text x="735.7619" font-size="12px" y="574.9061" clip-path="url(#clipPath2)" font-family="sans-serif" stroke="none" xml:space="preserve">desired_a_v = 0.0</text>
      <path fill="none" d="M942.2839 705.6202 L1020.6407 705.6202" clip-path="url(#clipPath2)"/>
      <path d="M1028.6407 705.6202 L1016.6407 700.6202 L1019.6407 705.6202 L1016.6407 710.6202 Z" stroke="none" clip-path="url(#clipPath2)"/>
      <text x="949.4366" font-size="12px" y="693.761" clip-path="url(#clipPath2)" font-family="sans-serif" stroke="none" xml:space="preserve">OBSERVE</text>
    </g>
    <g fill="rgb(225,225,225)" text-rendering="geometricPrecision" shape-rendering="geometricPrecision" transform="matrix(1,0,0,1,-63,0)" stroke="rgb(225,225,225)">
      <rect x="1028.6387" y="292.3798" clip-path="url(#clipPath2)" width="351.1224" rx="4" ry="4" height="213.5726" stroke="none"/>
      <rect x="1028.6387" y="292.3798" clip-path="url(#clipPath2)" fill="rgb(235,235,235)" width="351.1224" height="19" stroke="none"/>
    </g>
    <g font-size="15px" stroke-linecap="butt" transform="matrix(1,0,0,1,-63,0)" text-rendering="geometricPrecision" font-family="'Consolas'" shape-rendering="geometricPrecision" stroke-miterlimit="1.45">
      <text x="1162.9646" xml:space="preserve" y="305.5199" clip-path="url(#clipPath2)" stroke="none">to_station</text>
      <text x="1042.6388" xml:space="preserve" font-size="12px" y="307.2919" clip-path="url(#clipPath2)" stroke="none"> </text>
      <text x="1042.6388" xml:space="preserve" font-size="12px" y="319.2919" clip-path="url(#clipPath2)" stroke="none"> </text>
      <text x="1042.6388" xml:space="preserve" font-size="12px" y="331.2919" clip-path="url(#clipPath2)" stroke="none">entry/</text>
      <text x="1042.6388" xml:space="preserve" font-size="12px" y="343.2919" clip-path="url(#clipPath2)" stroke="none"> </text>
      <text x="1042.6388" xml:space="preserve" font-size="12px" y="355.2919" clip-path="url(#clipPath2)" stroke="none">TIME_TICK/</text>
      <text x="1042.6388" xml:space="preserve" font-size="12px" y="367.2919" clip-path="url(#clipPath2)" stroke="none">if is_orientation_needed():</text>
      <text x="1042.6388" xml:space="preserve" font-size="12px" y="379.2919" clip-path="url(#clipPath2)" stroke="none">    calculate_torsion()</text>
      <rect x="1028.6387" y="292.3798" clip-path="url(#clipPath2)" fill="none" width="351.1224" rx="4" ry="4" height="213.5726"/>
    </g>
    <g fill="url(#linearGradient6)" text-rendering="geometricPrecision" shape-rendering="geometricPrecision" transform="matrix(1,0,0,1,-63,0)" stroke="url(#linearGradient6)">
      <path d="M851.8444 24.0556 C851.8444 26.4967 849.8656 28.4756 847.4245 28.4756 C844.9835 28.4756 843.0046 26.4967 843.0046 24.0556 C843.0046 21.6146 844.9835 19.6357 847.4245 19.6357 C849.8656 19.6357 851.8444 21.6146 851.8444 24.0556 Z" stroke="none" clip-path="url(#clipPath2)"/>
    </g>
    <g text-rendering="geometricPrecision" stroke-miterlimit="1.45" shape-rendering="geometricPrecision" transform="matrix(1,0,0,1,-63,0)" stroke-linecap="butt">
      <path fill="none" d="M851.8444 24.0556 C851.8444 26.4967 849.8656 28.4756 847.4245 28.4756 C844.9835 28.4756 843.0046 26.4967 843.0046 24.0556 C843.0046 21.6146 844.9835 19.6357 847.4245 19.6357 C849.8656 19.6357 851.8444 21.6146 851.8444 24.0556 Z" clip-path="url(#clipPath2)"/>
    </g>
    <g fill="rgb(255,204,0)" text-rendering="geometricPrecision" shape-rendering="geometricPrecision" transform="matrix(1,0,0,1,-63,0)" stroke="rgb(255,204,0)">
      <path d="M82.6611 863.081 L223.8635 863.081 L223.8635 878.081 L238.8635 878.081 L238.8635 946.8626 L82.6611 946.8626 Z" stroke="none" clip-path="url(#clipPath2)"/>
      <path fill="white" d="M223.8635 863.081 L223.8635 878.081 L238.8635 878.081 Z" clip-path="url(#clipPath2)" fill-rule="evenodd" stroke="none"/>
    </g>
    <g text-rendering="geometricPrecision" stroke-miterlimit="1.45" shape-rendering="geometricPrecision" transform="matrix(1,0,0,1,-63,0)" stroke-linecap="butt">
      <path fill="none" d="M82.6611 863.081 L223.8635 863.081 L223.8635 878.081 L238.8635 878.081 L238.8635 946.8626 L82.6611 946.8626 Z" clip-path="url(#clipPath2)"/>
      <path fill="none" d="M223.8635 863.081 L223.8635 878.081 L238.8635 878.081 Z" clip-path="url(#clipPath2)" fill-rule="evenodd"/>
      <text x="94.7857" xml:space="preserve" y="889.8839" clip-path="url(#clipPath2)" font-family="'Consolas'" stroke="none">Init scripts:</text>
      <text x="94.7857" xml:space="preserve" y="901.8839" clip-path="url(#clipPath2)" font-family="'Consolas'" stroke="none"> </text>
      <text x="94.7857" xml:space="preserve" y="913.8839" clip-path="url(#clipPath2)" font-family="'Consolas'" stroke="none">inspect_constants.py</text>
      <text x="94.7857" xml:space="preserve" y="925.8839" clip-path="url(#clipPath2)" font-family="'Consolas'" stroke="none">inspect_orient.py</text>
      <path fill="none" d="M1332.9946 598.8576 L1332.9946 513.93" clip-path="url(#clipPath2)"/>
      <path d="M1332.9946 505.93 L1327.9946 517.93 L1332.9946 514.93 L1337.9946 517.93 Z" clip-path="url(#clipPath2)" stroke="none"/>
      <text x="1175.0181" xml:space="preserve" y="533.7094" clip-path="url(#clipPath2)" font-family="sans-serif" stroke="none">TO_STATION(a)/</text>
      <text x="1141.6313" xml:space="preserve" y="548.4106" clip-path="url(#clipPath2)" font-family="sans-serif" stroke="none">global desired_a, desired_a_v</text>
      <text x="1169.8237" xml:space="preserve" y="563.1118" clip-path="url(#clipPath2)" font-family="sans-serif" stroke="none">desired_a = float(a)</text>
      <text x="1173.8198" xml:space="preserve" y="577.8129" clip-path="url(#clipPath2)" font-family="sans-serif" stroke="none">desired_a_v = 0.0</text>
      <path fill="none" d="M847.4245 28.464 L847.4245 139.9553" clip-path="url(#clipPath2)"/>
      <path d="M847.4245 147.9553 L852.4245 135.9553 L847.4245 138.9553 L842.4245 135.9553 Z" clip-path="url(#clipPath2)" stroke="none"/>
    </g>
  </g>
</svg>
