<?xml version="1.0" encoding="UTF-8"?><svg xmlns="http://www.w3.org/2000/svg" xmlns:xlink="http://www.w3.org/1999/xlink" fill-opacity="1" color-rendering="auto" color-interpolation="auto" text-rendering="auto" stroke="black" stroke-linecap="square" width="440" stroke-miterlimit="10" shape-rendering="auto" stroke-opacity="1" fill="black" stroke-dasharray="none" font-weight="normal" stroke-width="1" height="635" font-family="'Dialog'" font-style="normal" stroke-linejoin="miter" font-size="12px" stroke-dashoffset="0" image-rendering="auto">
  <!--Generated by ySVG 2.6-->
  <defs id="genericDefs"/>
  <g>
    <defs id="defs1">
      <linearGradient x1="735.1032" gradientUnits="userSpaceOnUse" x2="1041.2543" y1="1302.6847" y2="1355.4604" id="linearGradient1" spreadMethod="reflect">
        <stop stop-opacity="1" stop-color="rgb(232,238,247)" offset="0%"/>
        <stop stop-opacity="1" stop-color="rgb(183,201,227)" offset="100%"/>
      </linearGradient>
      <linearGradient x1="735.1032" gradientUnits="userSpaceOnUse" x2="1041.2543" y1="1419.8301" y2="1472.6058" id="linearGradient2" spreadMethod="reflect">
        <stop stop-opacity="1" stop-color="rgb(232,238,247)" offset="0%"/>
        <stop stop-opacity="1" stop-color="rgb(183,201,227)" offset="100%"/>
      </linearGradient>
      <linearGradient x1="735.1032" gradientUnits="userSpaceOnUse" x2="1041.2543" y1="1542.116" y2="1611.9413" id="linearGradient3" spreadMethod="reflect">
        <stop stop-opacity="1" stop-color="rgb(232,238,247)" offset="0%"/>
        <stop stop-opacity="1" stop-color="rgb(183,201,227)" offset="100%"/>
      </linearGradient>
      <linearGradient x1="735.1032" gradientUnits="userSpaceOnUse" x2="1041.2543" y1="1688.3688" y2="1758.1941" id="linearGradient4" spreadMethod="reflect">
        <stop stop-opacity="1" stop-color="rgb(232,238,247)" offset="0%"/>
        <stop stop-opacity="1" stop-color="rgb(183,201,227)" offset="100%"/>
      </linearGradient>
      <clipPath clipPathUnits="userSpaceOnUse" id="clipPath1">
        <path d="M0 0 L440 0 L440 635 L0 635 L0 0 Z"/>
      </clipPath>
      <clipPath clipPathUnits="userSpaceOnUse" id="clipPath2">
        <path d="M663 1183 L1103 1183 L1103 1818 L663 1818 L663 1183 Z"/>
      </clipPath>
      <clipPath clipPathUnits="userSpaceOnUse" id="clipPath3">
        <path d="M663 1302.6847 L663 1818 L1103 1818 L1103 1302.6847 Z"/>
      </clipPath>
      <clipPath clipPathUnits="userSpaceOnUse" id="clipPath4">
        <path d="M663 1183 L663 1302.6847 L1103 1302.6847 L1103 1183 Z"/>
      </clipPath>
      <clipPath clipPathUnits="userSpaceOnUse" id="clipPath5">
        <path d="M663 1419.8301 L663 1818 L1103 1818 L1103 1419.8301 Z"/>
      </clipPath>
      <clipPath clipPathUnits="userSpaceOnUse" id="clipPath6">
        <path d="M663 1183 L663 1419.8301 L1103 1419.8301 L1103 1183 Z"/>
      </clipPath>
      <clipPath clipPathUnits="userSpaceOnUse" id="clipPath7">
        <path d="M663 1542.116 L663 1818 L1103 1818 L1103 1542.116 Z"/>
      </clipPath>
      <clipPath clipPathUnits="userSpaceOnUse" id="clipPath8">
        <path d="M663 1183 L663 1542.116 L1103 1542.116 L1103 1183 Z"/>
      </clipPath>
      <clipPath clipPathUnits="userSpaceOnUse" id="clipPath9">
        <path d="M663 1688.3688 L663 1818 L1103 1818 L1103 1688.3688 Z"/>
      </clipPath>
      <clipPath clipPathUnits="userSpaceOnUse" id="clipPath10">
        <path d="M663 1183 L663 1688.3688 L1103 1688.3688 L1103 1183 Z"/>
      </clipPath>
    </defs>
    <g fill="white" text-rendering="geometricPrecision" shape-rendering="geometricPrecision" transform="translate(-663,-1183)" stroke="white">
      <rect x="663" width="440" height="635" y="1183" clip-path="url(#clipPath2)" stroke="none"/>
    </g>
    <g fill="rgb(245,245,245)" text-rendering="geometricPrecision" shape-rendering="geometricPrecision" transform="matrix(1,0,0,1,-663,-1183)" stroke="rgb(245,245,245)">
      <rect x="682.6332" y="1198.201" clip-path="url(#clipPath2)" width="404.7982" rx="4" ry="4" height="600.3149" stroke="none"/>
      <rect x="682.6332" y="1198.201" clip-path="url(#clipPath2)" fill="rgb(235,235,235)" width="404.7982" height="19" stroke="none"/>
    </g>
    <g font-size="15px" stroke-linecap="butt" transform="matrix(1,0,0,1,-663,-1183)" text-rendering="geometricPrecision" font-family="'Consolas'" shape-rendering="geometricPrecision" stroke-miterlimit="1.45">
      <text x="819.0557" xml:space="preserve" y="1211.3411" clip-path="url(#clipPath2)" stroke="none">orbital_maneuvre</text>
      <text x="688.6332" xml:space="preserve" font-size="12px" y="1221.113" clip-path="url(#clipPath2)" stroke="none"> </text>
      <text x="688.6332" xml:space="preserve" font-size="12px" y="1233.113" clip-path="url(#clipPath2)" stroke="none"> </text>
      <text x="688.6332" xml:space="preserve" font-size="12px" y="1245.113" clip-path="url(#clipPath2)" stroke="none">entry/</text>
      <rect x="682.6332" y="1198.201" clip-path="url(#clipPath2)" fill="none" width="404.7982" rx="4" ry="4" height="600.3149"/>
    </g>
    <g fill="url(#linearGradient1)" text-rendering="geometricPrecision" shape-rendering="geometricPrecision" transform="matrix(1,0,0,1,-663,-1183)" stroke="url(#linearGradient1)">
      <rect x="735.1032" y="1275.9835" clip-path="url(#clipPath3)" width="306.151" rx="4" ry="4" height="79.477" stroke="none"/>
      <rect x="735.1032" y="1275.9835" clip-path="url(#clipPath4)" fill="rgb(183,201,227)" width="306.151" rx="4" ry="4" height="79.477" stroke="none"/>
    </g>
    <g text-rendering="geometricPrecision" stroke-miterlimit="1.45" shape-rendering="geometricPrecision" transform="matrix(1,0,0,1,-663,-1183)" stroke-linecap="butt">
      <rect x="735.1032" y="1275.9835" clip-path="url(#clipPath2)" fill="none" width="306.151" rx="4" ry="4" height="79.477"/>
      <line y2="1302.6847" fill="none" x1="735.1032" clip-path="url(#clipPath2)" x2="1041.2542" y1="1302.6847"/>
      <text x="872.1768" y="1294.048" clip-path="url(#clipPath2)" font-family="sans-serif" stroke="none" font-weight="bold" xml:space="preserve">damp</text>
      <text x="741.1032" xml:space="preserve" y="1290.8956" clip-path="url(#clipPath2)" font-family="'Consolas'" stroke="none"> </text>
      <text x="741.1032" xml:space="preserve" y="1302.8956" clip-path="url(#clipPath2)" font-family="'Consolas'" stroke="none"> </text>
      <text x="741.1032" xml:space="preserve" y="1314.8956" clip-path="url(#clipPath2)" font-family="'Consolas'" stroke="none">entry/</text>
      <text x="741.1032" xml:space="preserve" y="1326.8956" clip-path="url(#clipPath2)" font-family="'Consolas'" stroke="none">DISPATCH(orientation, 'REDUCTING')</text>
    </g>
    <g fill="url(#linearGradient2)" text-rendering="geometricPrecision" shape-rendering="geometricPrecision" transform="matrix(1,0,0,1,-663,-1183)" stroke="url(#linearGradient2)">
      <rect x="735.1032" y="1393.1289" clip-path="url(#clipPath5)" width="306.151" rx="4" ry="4" height="79.477" stroke="none"/>
      <rect x="735.1032" y="1393.1289" clip-path="url(#clipPath6)" fill="rgb(183,201,227)" width="306.151" rx="4" ry="4" height="79.477" stroke="none"/>
    </g>
    <g text-rendering="geometricPrecision" stroke-miterlimit="1.45" shape-rendering="geometricPrecision" transform="matrix(1,0,0,1,-663,-1183)" stroke-linecap="butt">
      <rect x="735.1032" y="1393.1289" clip-path="url(#clipPath2)" fill="none" width="306.151" rx="4" ry="4" height="79.477"/>
      <line y2="1419.83" fill="none" x1="735.1032" clip-path="url(#clipPath2)" x2="1041.2542" y1="1419.83"/>
      <text x="848.4932" y="1411.1934" clip-path="url(#clipPath2)" font-family="sans-serif" stroke="none" font-weight="bold" xml:space="preserve">calculate_fuel</text>
      <text x="741.1032" xml:space="preserve" y="1408.041" clip-path="url(#clipPath2)" font-family="'Consolas'" stroke="none"> </text>
      <text x="741.1032" xml:space="preserve" y="1420.041" clip-path="url(#clipPath2)" font-family="'Consolas'" stroke="none"> </text>
      <text x="741.1032" xml:space="preserve" y="1432.041" clip-path="url(#clipPath2)" font-family="'Consolas'" stroke="none">entry/</text>
      <text x="741.1032" xml:space="preserve" y="1444.041" clip-path="url(#clipPath2)" font-family="'Consolas'" stroke="none">calc_fuel()</text>
    </g>
    <g fill="url(#linearGradient3)" text-rendering="geometricPrecision" shape-rendering="geometricPrecision" transform="matrix(1,0,0,1,-663,-1183)" stroke="url(#linearGradient3)">
      <rect x="735.1032" y="1515.4148" clip-path="url(#clipPath7)" width="306.151" rx="4" ry="4" height="96.5265" stroke="none"/>
      <rect x="735.1032" y="1515.4148" clip-path="url(#clipPath8)" fill="rgb(183,201,227)" width="306.151" rx="4" ry="4" height="96.5265" stroke="none"/>
    </g>
    <g text-rendering="geometricPrecision" stroke-miterlimit="1.45" shape-rendering="geometricPrecision" transform="matrix(1,0,0,1,-663,-1183)" stroke-linecap="butt">
      <rect x="735.1032" y="1515.4148" clip-path="url(#clipPath2)" fill="none" width="306.151" rx="4" ry="4" height="96.5265"/>
      <line y2="1542.1159" fill="none" x1="735.1032" clip-path="url(#clipPath2)" x2="1041.2542" y1="1542.1159"/>
      <text x="830.4873" y="1533.4792" clip-path="url(#clipPath2)" font-family="sans-serif" stroke="none" font-weight="bold" xml:space="preserve">start_engine_ellipse</text>
      <text x="741.1032" xml:space="preserve" y="1530.3269" clip-path="url(#clipPath2)" font-family="'Consolas'" stroke="none"> </text>
      <text x="741.1032" xml:space="preserve" y="1542.3269" clip-path="url(#clipPath2)" font-family="'Consolas'" stroke="none"> </text>
      <text x="741.1032" xml:space="preserve" y="1554.3269" clip-path="url(#clipPath2)" font-family="'Consolas'" stroke="none">entry/</text>
      <text x="741.1032" xml:space="preserve" y="1566.3269" clip-path="url(#clipPath2)" font-family="'Consolas'" stroke="none">engine.set_state(STATE_ON)</text>
      <text x="741.1032" xml:space="preserve" y="1578.3269" clip-path="url(#clipPath2)" font-family="'Consolas'" stroke="none">engine.set_traction(max_engine_traction)</text>
      <text x="741.1032" xml:space="preserve" y="1590.3269" clip-path="url(#clipPath2)" font-family="'Consolas'" stroke="none">engine.start_engine()</text>
    </g>
    <g fill="url(#linearGradient4)" text-rendering="geometricPrecision" shape-rendering="geometricPrecision" transform="matrix(1,0,0,1,-663,-1183)" stroke="url(#linearGradient4)">
      <rect x="735.1032" y="1661.6676" clip-path="url(#clipPath9)" width="306.151" rx="4" ry="4" height="96.5265" stroke="none"/>
      <rect x="735.1032" y="1661.6676" clip-path="url(#clipPath10)" fill="rgb(183,201,227)" width="306.151" rx="4" ry="4" height="96.5265" stroke="none"/>
    </g>
    <g text-rendering="geometricPrecision" stroke-miterlimit="1.45" shape-rendering="geometricPrecision" transform="matrix(1,0,0,1,-663,-1183)" stroke-linecap="butt">
      <rect x="735.1032" y="1661.6676" clip-path="url(#clipPath2)" fill="none" width="306.151" rx="4" ry="4" height="96.5265"/>
      <line y2="1688.3687" fill="none" x1="735.1032" clip-path="url(#clipPath2)" x2="1041.2542" y1="1688.3687"/>
      <text x="830.8271" y="1679.7321" clip-path="url(#clipPath2)" font-family="sans-serif" stroke="none" font-weight="bold" xml:space="preserve">stop_engine_ellipse</text>
      <text x="741.1032" xml:space="preserve" y="1676.5797" clip-path="url(#clipPath2)" font-family="'Consolas'" stroke="none"> </text>
      <text x="741.1032" xml:space="preserve" y="1688.5797" clip-path="url(#clipPath2)" font-family="'Consolas'" stroke="none"> </text>
      <text x="741.1032" xml:space="preserve" y="1700.5797" clip-path="url(#clipPath2)" font-family="'Consolas'" stroke="none">entry/</text>
      <text x="741.1032" xml:space="preserve" y="1712.5797" clip-path="url(#clipPath2)" font-family="'Consolas'" stroke="none">engine.stop_engine()</text>
      <text x="741.1032" xml:space="preserve" y="1724.5797" clip-path="url(#clipPath2)" font-family="'Consolas'" stroke="none">engine.set_state(STATE_OFF)</text>
      <text x="741.1032" xml:space="preserve" y="1736.5797" clip-path="url(#clipPath2)" font-family="'Consolas'" stroke="none">DISPATCH(orientation, 'OBSERVE')</text>
      <text x="741.1032" xml:space="preserve" y="1748.5797" clip-path="url(#clipPath2)" font-family="'Consolas'" stroke="none">transmitter.set_state(STATE_ON)</text>
    </g>
    <g text-rendering="geometricPrecision" stroke-miterlimit="1.45" shape-rendering="geometricPrecision" transform="matrix(1,0,0,1,-663,-1183)" stroke-linecap="butt">
      <path fill="none" d="M997.391 1355.4674 L997.391 1385.1057" clip-path="url(#clipPath2)"/>
      <path d="M997.391 1393.1057 L1002.391 1381.1057 L997.391 1384.1057 L992.391 1381.1057 Z" clip-path="url(#clipPath2)" stroke="none"/>
      <text x="908.954" xml:space="preserve" y="1377.0505" clip-path="url(#clipPath2)" font-family="sans-serif" stroke="none">TANGENTED</text>
      <path fill="none" d="M997.4 1472.5739 L997.4 1507.4161" clip-path="url(#clipPath2)"/>
      <path d="M997.4 1515.4161 L1002.4 1503.4161 L997.4 1506.4161 L992.4 1503.4161 Z" clip-path="url(#clipPath2)" stroke="none"/>
      <text x="900.8878" xml:space="preserve" y="1492.1198" clip-path="url(#clipPath2)" font-family="sans-serif" stroke="none">TIME_TICK </text>
      <text x="894.5363" xml:space="preserve" y="1506.8209" clip-path="url(#clipPath2)" font-family="sans-serif" stroke="none">[is_angle_ok()]</text>
      <path fill="none" d="M997.531 1611.8983 L997.531 1653.7056" clip-path="url(#clipPath2)"/>
      <path d="M997.531 1661.7056 L1002.531 1649.7056 L997.531 1652.7056 L992.531 1649.7056 Z" clip-path="url(#clipPath2)" stroke="none"/>
      <text x="814.3173" xml:space="preserve" y="1633.0177" clip-path="url(#clipPath2)" font-family="sans-serif" stroke="none">TIME_TICK </text>
      <text x="741.913" xml:space="preserve" y="1647.7189" clip-path="url(#clipPath2)" font-family="sans-serif" stroke="none">[engine.get_fuel() &lt;= transfer_end_fuel]</text>
    </g>
  </g>
</svg>
