<?xml version="1.0" encoding="UTF-8"?><svg xmlns="http://www.w3.org/2000/svg" xmlns:xlink="http://www.w3.org/1999/xlink" fill-opacity="1" color-rendering="auto" color-interpolation="auto" text-rendering="auto" stroke="black" stroke-linecap="square" width="1314" stroke-miterlimit="10" shape-rendering="auto" stroke-opacity="1" fill="black" stroke-dasharray="none" font-weight="normal" stroke-width="1" height="613" font-family="'Dialog'" font-style="normal" stroke-linejoin="miter" font-size="12px" stroke-dashoffset="0" image-rendering="auto">
  <!--Generated by ySVG 2.6-->
  <defs id="genericDefs"/>
  <g>
    <defs id="defs1">
      <linearGradient x1="262.4821" gradientUnits="userSpaceOnUse" x2="623.9285" y1="168.5236" y2="274.4506" id="linearGradient1" spreadMethod="reflect">
        <stop stop-opacity="1" stop-color="rgb(232,238,247)" offset="0%"/>
        <stop stop-opacity="1" stop-color="rgb(183,201,227)" offset="100%"/>
      </linearGradient>
      <linearGradient x1="262.4821" gradientUnits="userSpaceOnUse" x2="623.9285" y1="378.5864" y2="484.5135" id="linearGradient2" spreadMethod="reflect">
        <stop stop-opacity="1" stop-color="rgb(232,238,247)" offset="0%"/>
        <stop stop-opacity="1" stop-color="rgb(183,201,227)" offset="100%"/>
      </linearGradient>
      <linearGradient x1="1051.3959" gradientUnits="userSpaceOnUse" x2="1508.3334" y1="378.5864" y2="484.5135" id="linearGradient3" spreadMethod="reflect">
        <stop stop-opacity="1" stop-color="rgb(232,238,247)" offset="0%"/>
        <stop stop-opacity="1" stop-color="rgb(183,201,227)" offset="100%"/>
      </linearGradient>
      <linearGradient x1="1051.3959" gradientUnits="userSpaceOnUse" x2="1508.3334" y1="168.5236" y2="274.4506" id="linearGradient4" spreadMethod="reflect">
        <stop stop-opacity="1" stop-color="rgb(232,238,247)" offset="0%"/>
        <stop stop-opacity="1" stop-color="rgb(183,201,227)" offset="100%"/>
      </linearGradient>
      <linearGradient x1="438.7854" gradientUnits="userSpaceOnUse" x2="447.6252" y1="40.0966" y2="57.0966" id="linearGradient5" spreadMethod="reflect">
        <stop stop-opacity="1" stop-color="rgb(51,51,51)" offset="0%"/>
        <stop stop-opacity="1" stop-color="black" offset="100%"/>
      </linearGradient>
      <clipPath clipPathUnits="userSpaceOnUse" id="clipPath1">
        <path d="M0 0 L1314 0 L1314 613 L0 613 L0 0 Z"/>
      </clipPath>
      <clipPath clipPathUnits="userSpaceOnUse" id="clipPath2">
        <path d="M229 25 L1543 25 L1543 638 L229 638 L229 25 Z"/>
      </clipPath>
      <clipPath clipPathUnits="userSpaceOnUse" id="clipPath3">
        <path d="M229 168.5236 L229 638 L1543 638 L1543 168.5236 Z"/>
      </clipPath>
      <clipPath clipPathUnits="userSpaceOnUse" id="clipPath4">
        <path d="M229 25 L229 168.5236 L1543 168.5236 L1543 25 Z"/>
      </clipPath>
      <clipPath clipPathUnits="userSpaceOnUse" id="clipPath5">
        <path d="M229 378.5864 L229 638 L1543 638 L1543 378.5864 Z"/>
      </clipPath>
      <clipPath clipPathUnits="userSpaceOnUse" id="clipPath6">
        <path d="M229 25 L229 378.5864 L1543 378.5864 L1543 25 Z"/>
      </clipPath>
    </defs>
    <g fill="rgb(245,245,245)" text-rendering="geometricPrecision" shape-rendering="geometricPrecision" transform="matrix(1,0,0,1,-229,-25)" stroke="rgb(245,245,245)">
      <rect x="244.265" y="87.0966" clip-path="url(#clipPath2)" width="1279.0684" rx="4" ry="4" height="425.4668" stroke="none"/>
    </g>
    <g fill="rgb(235,235,235)" text-rendering="geometricPrecision" shape-rendering="geometricPrecision" transform="matrix(1,0,0,1,-229,-25)" stroke="rgb(235,235,235)">
      <rect x="244.265" width="1279.0684" height="19" y="87.0966" clip-path="url(#clipPath2)" stroke="none"/>
    </g>
    <g font-size="15px" stroke-linecap="butt" transform="matrix(1,0,0,1,-229,-25)" text-rendering="geometricPrecision" font-family="'Consolas'" shape-rendering="geometricPrecision" stroke-miterlimit="1.45">
      <text x="838.4403" xml:space="preserve" y="100.2367" clip-path="url(#clipPath2)" stroke="none">transmitter</text>
      <text x="250.265" xml:space="preserve" font-size="12px" y="102.0087" clip-path="url(#clipPath2)" stroke="none"> </text>
      <text x="250.265" xml:space="preserve" font-size="12px" y="114.0087" clip-path="url(#clipPath2)" stroke="none"> </text>
      <text x="250.265" xml:space="preserve" font-size="12px" y="126.0087" clip-path="url(#clipPath2)" stroke="none">entry/</text>
      <rect x="244.265" y="87.0966" clip-path="url(#clipPath2)" fill="none" width="1279.0684" rx="4" ry="4" height="425.4668"/>
    </g>
    <g fill="url(#linearGradient1)" text-rendering="geometricPrecision" shape-rendering="geometricPrecision" transform="matrix(1,0,0,1,-229,-25)" stroke="url(#linearGradient1)">
      <rect x="262.4821" y="141.8224" clip-path="url(#clipPath3)" width="361.4465" rx="4" ry="4" height="132.6282" stroke="none"/>
      <rect x="262.4821" y="141.8224" clip-path="url(#clipPath4)" fill="rgb(183,201,227)" width="361.4465" rx="4" ry="4" height="132.6282" stroke="none"/>
    </g>
    <g text-rendering="geometricPrecision" stroke-miterlimit="1.45" shape-rendering="geometricPrecision" transform="matrix(1,0,0,1,-229,-25)" stroke-linecap="butt">
      <rect x="262.4821" y="141.8224" clip-path="url(#clipPath2)" fill="none" width="361.4465" rx="4" ry="4" height="132.6282"/>
      <line y2="168.5236" fill="none" x1="262.4821" clip-path="url(#clipPath2)" x2="623.9285" y1="168.5236"/>
      <text x="431.5363" y="159.8869" clip-path="url(#clipPath2)" font-family="sans-serif" stroke="none" font-weight="bold" xml:space="preserve">wait</text>
      <text x="268.4821" xml:space="preserve" y="156.7345" clip-path="url(#clipPath2)" font-family="'Consolas'" stroke="none"> </text>
      <text x="268.4821" xml:space="preserve" y="168.7345" clip-path="url(#clipPath2)" font-family="'Consolas'" stroke="none"> </text>
      <text x="268.4821" xml:space="preserve" y="180.7345" clip-path="url(#clipPath2)" font-family="'Consolas'" stroke="none">entry/</text>
    </g>
    <g fill="url(#linearGradient2)" text-rendering="geometricPrecision" shape-rendering="geometricPrecision" transform="matrix(1,0,0,1,-229,-25)" stroke="url(#linearGradient2)">
      <rect x="262.4821" y="351.8853" clip-path="url(#clipPath5)" width="361.4465" rx="4" ry="4" height="132.6282" stroke="none"/>
      <rect x="262.4821" y="351.8853" clip-path="url(#clipPath6)" fill="rgb(183,201,227)" width="361.4465" rx="4" ry="4" height="132.6282" stroke="none"/>
    </g>
    <g text-rendering="geometricPrecision" stroke-miterlimit="1.45" shape-rendering="geometricPrecision" transform="matrix(1,0,0,1,-229,-25)" stroke-linecap="butt">
      <rect x="262.4821" y="351.8853" clip-path="url(#clipPath2)" fill="none" width="361.4465" rx="4" ry="4" height="132.6282"/>
      <line y2="378.5864" fill="none" x1="262.4821" clip-path="url(#clipPath2)" x2="623.9285" y1="378.5864"/>
      <text x="422.5188" y="369.9497" clip-path="url(#clipPath2)" font-family="sans-serif" stroke="none" font-weight="bold" xml:space="preserve">receive</text>
      <text x="268.4821" xml:space="preserve" y="366.7974" clip-path="url(#clipPath2)" font-family="'Consolas'" stroke="none"> </text>
      <text x="268.4821" xml:space="preserve" y="378.7974" clip-path="url(#clipPath2)" font-family="'Consolas'" stroke="none"> </text>
      <text x="268.4821" xml:space="preserve" y="390.7974" clip-path="url(#clipPath2)" font-family="'Consolas'" stroke="none">entry/</text>
      <text x="268.4821" xml:space="preserve" y="402.7974" clip-path="url(#clipPath2)" font-family="'Consolas'" stroke="none">transmitter.receive(routing[message_index][0])</text>
    </g>
    <g fill="url(#linearGradient3)" text-rendering="geometricPrecision" shape-rendering="geometricPrecision" transform="matrix(1,0,0,1,-229,-25)" stroke="url(#linearGradient3)">
      <rect x="1051.3958" y="351.8853" clip-path="url(#clipPath5)" width="456.9376" rx="4" ry="4" height="132.6282" stroke="none"/>
      <rect x="1051.3958" y="351.8853" clip-path="url(#clipPath6)" fill="rgb(183,201,227)" width="456.9376" rx="4" ry="4" height="132.6282" stroke="none"/>
    </g>
    <g text-rendering="geometricPrecision" stroke-miterlimit="1.45" shape-rendering="geometricPrecision" transform="matrix(1,0,0,1,-229,-25)" stroke-linecap="butt">
      <rect x="1051.3958" y="351.8853" clip-path="url(#clipPath2)" fill="none" width="456.9376" rx="4" ry="4" height="132.6282"/>
      <line y2="378.5864" fill="none" x1="1051.3958" clip-path="url(#clipPath2)" x2="1508.3334" y1="378.5864"/>
      <text x="1241.8431" y="369.9497" clip-path="url(#clipPath2)" font-family="sans-serif" stroke="none" font-weight="bold" xml:space="preserve">get_message</text>
      <text x="1057.3959" xml:space="preserve" y="366.7974" clip-path="url(#clipPath2)" font-family="'Consolas'" stroke="none"> </text>
      <text x="1057.3959" xml:space="preserve" y="378.7974" clip-path="url(#clipPath2)" font-family="'Consolas'" stroke="none"> </text>
      <text x="1057.3959" xml:space="preserve" y="390.7974" clip-path="url(#clipPath2)" font-family="'Consolas'" stroke="none">entry/</text>
      <text x="1057.3959" xml:space="preserve" y="402.7974" clip-path="url(#clipPath2)" font-family="'Consolas'" stroke="none">global message</text>
      <text x="1057.3959" xml:space="preserve" y="414.7974" clip-path="url(#clipPath2)" font-family="'Consolas'" stroke="none">message = transmitter.get_message(routing[message_index][0])</text>
    </g>
    <g fill="url(#linearGradient4)" text-rendering="geometricPrecision" shape-rendering="geometricPrecision" transform="matrix(1,0,0,1,-229,-25)" stroke="url(#linearGradient4)">
      <rect x="1051.3958" y="141.8224" clip-path="url(#clipPath3)" width="456.9376" rx="4" ry="4" height="132.6282" stroke="none"/>
      <rect x="1051.3958" y="141.8224" clip-path="url(#clipPath4)" fill="rgb(183,201,227)" width="456.9376" rx="4" ry="4" height="132.6282" stroke="none"/>
    </g>
    <g text-rendering="geometricPrecision" stroke-miterlimit="1.45" shape-rendering="geometricPrecision" transform="matrix(1,0,0,1,-229,-25)" stroke-linecap="butt">
      <rect x="1051.3958" y="141.8224" clip-path="url(#clipPath2)" fill="none" width="456.9376" rx="4" ry="4" height="132.6282"/>
      <line y2="168.5236" fill="none" x1="1051.3958" clip-path="url(#clipPath2)" x2="1508.3334" y1="168.5236"/>
      <text x="1236.8392" y="159.8869" clip-path="url(#clipPath2)" font-family="sans-serif" stroke="none" font-weight="bold" xml:space="preserve">send_message</text>
      <text x="1057.3959" xml:space="preserve" y="156.7345" clip-path="url(#clipPath2)" font-family="'Consolas'" stroke="none"> </text>
      <text x="1057.3959" xml:space="preserve" y="168.7345" clip-path="url(#clipPath2)" font-family="'Consolas'" stroke="none"> </text>
      <text x="1057.3959" xml:space="preserve" y="180.7345" clip-path="url(#clipPath2)" font-family="'Consolas'" stroke="none">entry/</text>
      <text x="1057.3959" xml:space="preserve" y="192.7345" clip-path="url(#clipPath2)" font-family="'Consolas'" stroke="none">global message_index</text>
      <text x="1057.3959" xml:space="preserve" y="204.7345" clip-path="url(#clipPath2)" font-family="'Consolas'" stroke="none">transmitter.send_data(</text>
      <text x="1057.3959" xml:space="preserve" y="216.7345" clip-path="url(#clipPath2)" font-family="'Consolas'" stroke="none">    MESSAGE_SMS, </text>
      <text x="1057.3959" xml:space="preserve" y="228.7345" clip-path="url(#clipPath2)" font-family="'Consolas'" stroke="none">    message.data, </text>
      <text x="1057.3959" xml:space="preserve" y="240.7345" clip-path="url(#clipPath2)" font-family="'Consolas'" stroke="none">    routing[message_index][1], </text>
      <text x="1057.3959" xml:space="preserve" y="252.7345" clip-path="url(#clipPath2)" font-family="'Consolas'" stroke="none">    routing[message_index][0])</text>
      <text x="1057.3959" xml:space="preserve" y="264.7345" clip-path="url(#clipPath2)" font-family="'Consolas'" stroke="none">message_index += 1</text>
    </g>
    <g fill="url(#linearGradient5)" text-rendering="geometricPrecision" shape-rendering="geometricPrecision" transform="matrix(1,0,0,1,-229,-25)" stroke="url(#linearGradient5)">
      <path d="M447.6252 48.5966 C447.6252 51.0376 445.6463 53.0165 443.2053 53.0165 C440.7642 53.0165 438.7854 51.0376 438.7854 48.5966 C438.7854 46.1555 440.7642 44.1766 443.2053 44.1766 C445.6463 44.1766 447.6252 46.1555 447.6252 48.5966 Z" stroke="none" clip-path="url(#clipPath2)"/>
    </g>
    <g text-rendering="geometricPrecision" stroke-miterlimit="1.45" shape-rendering="geometricPrecision" transform="matrix(1,0,0,1,-229,-25)" stroke-linecap="butt">
      <path fill="none" d="M447.6252 48.5966 C447.6252 51.0376 445.6463 53.0165 443.2053 53.0165 C440.7642 53.0165 438.7854 51.0376 438.7854 48.5966 C438.7854 46.1555 440.7642 44.1766 443.2053 44.1766 C445.6463 44.1766 447.6252 46.1555 447.6252 48.5966 Z" clip-path="url(#clipPath2)"/>
    </g>
    <g fill="rgb(255,204,0)" text-rendering="geometricPrecision" shape-rendering="geometricPrecision" transform="matrix(1,0,0,1,-229,-25)" stroke="rgb(255,204,0)">
      <path d="M244.265 542.5634 L407.1534 542.5634 L407.1534 557.5634 L422.1534 557.5634 L422.1534 622.4266 L244.265 622.4266 Z" stroke="none" clip-path="url(#clipPath2)"/>
      <path fill="white" d="M407.1534 542.5634 L407.1534 557.5634 L422.1534 557.5634 Z" clip-path="url(#clipPath2)" fill-rule="evenodd" stroke="none"/>
    </g>
    <g text-rendering="geometricPrecision" stroke-miterlimit="1.45" shape-rendering="geometricPrecision" transform="matrix(1,0,0,1,-229,-25)" stroke-linecap="butt">
      <path fill="none" d="M244.265 542.5634 L407.1534 542.5634 L407.1534 557.5634 L422.1534 557.5634 L422.1534 622.4266 L244.265 622.4266 Z" clip-path="url(#clipPath2)"/>
      <path fill="none" d="M407.1534 542.5634 L407.1534 557.5634 L422.1534 557.5634 Z" clip-path="url(#clipPath2)" fill-rule="evenodd"/>
      <text x="273.8303" xml:space="preserve" y="567.4071" clip-path="url(#clipPath2)" font-family="'Consolas'" stroke="none">Init scripts:</text>
      <text x="273.8303" xml:space="preserve" y="579.4071" clip-path="url(#clipPath2)" font-family="'Consolas'" stroke="none"> </text>
      <text x="273.8303" xml:space="preserve" y="591.4071" clip-path="url(#clipPath2)" font-family="'Consolas'" stroke="none">sms_constants.py</text>
      <text x="273.8303" xml:space="preserve" y="603.4071" clip-path="url(#clipPath2)" font-family="'Consolas'" stroke="none">sms_transmitter.py</text>
      <path fill="none" d="M443.2053 274.4735 L443.2053 343.9156" clip-path="url(#clipPath2)"/>
      <path d="M443.2053 351.9156 L448.2053 339.9156 L443.2053 342.9156 L438.2053 339.9156 Z" clip-path="url(#clipPath2)" stroke="none"/>
      <text x="491.578" xml:space="preserve" y="317.8818" clip-path="url(#clipPath2)" font-family="sans-serif" stroke="none">DELIVERY</text>
      <path fill="none" d="M623.9521 418.1993 L1043.3921 418.1993" clip-path="url(#clipPath2)"/>
      <path d="M1051.3921 418.1993 L1039.3921 413.1993 L1042.3921 418.1993 L1039.3921 423.1993 Z" clip-path="url(#clipPath2)" stroke="none"/>
      <text x="768.302" xml:space="preserve" y="443.8727" clip-path="url(#clipPath2)" font-family="sans-serif" stroke="none">TIME_TICK</text>
      <text x="631.5471" xml:space="preserve" y="458.5738" clip-path="url(#clipPath2)" font-family="sans-serif" stroke="none">[transmitter.get_progress(routing[message_index][0]) &gt;= 100.0]</text>
      <path fill="none" d="M1279.8646 351.8624 L1279.8646 282.4203" clip-path="url(#clipPath2)"/>
      <path d="M1279.8646 274.4203 L1274.8646 286.4203 L1279.8646 283.4203 L1284.8646 286.4203 Z" clip-path="url(#clipPath2)" stroke="none"/>
      <text x="1339.1428" xml:space="preserve" y="310.5312" clip-path="url(#clipPath2)" font-family="sans-serif" stroke="none">TIME_TICK </text>
      <text x="1299.4397" xml:space="preserve" y="325.2324" clip-path="url(#clipPath2)" font-family="sans-serif" stroke="none">[is_KA_near_to_recipient()]</text>
      <path fill="none" d="M1051.3744 219.3849 L764.3349 219.3849 L764.3349 381.136 L631.9283 381.136" clip-path="url(#clipPath2)"/>
      <path d="M623.9283 381.136 L635.9283 386.136 L632.9283 381.136 L635.9283 376.136 Z" clip-path="url(#clipPath2)" stroke="none"/>
      <text x="891.1821" xml:space="preserve" y="249.3427" clip-path="url(#clipPath2)" font-family="sans-serif" stroke="none">TIME_TICK</text>
      <text x="838.3041" xml:space="preserve" y="264.0438" clip-path="url(#clipPath2)" font-family="sans-serif" stroke="none">[message_index != len(routing)]</text>
      <path fill="none" d="M443.2053 52.9979 L443.2053 133.8163" clip-path="url(#clipPath2)"/>
      <path d="M443.2053 141.8163 L448.2053 129.8163 L443.2053 132.8163 L438.2053 129.8163 Z" clip-path="url(#clipPath2)" stroke="none"/>
    </g>
  </g>
</svg>
